<mxfile host="app.diagrams.net" modified="2023-06-18T12:24:29.726Z" agent="Mozilla/5.0 (Macintosh; Intel Mac OS X 10_15_7) AppleWebKit/605.1.15 (KHTML, like Gecko) Version/16.3 Safari/605.1.15" etag="GT0yquKk2NagIcdgSgtf" version="21.4.0" type="github">
  <diagram name="Page-1" id="HzZrMtV6PAt0bUgQYzIZ">
    <mxGraphModel dx="1179" dy="1832" grid="0" gridSize="10" guides="1" tooltips="1" connect="1" arrows="1" fold="1" page="1" pageScale="1" pageWidth="1066" pageHeight="1066" background="#ffffff" math="0" shadow="0">
      <root>
        <mxCell id="0" />
        <mxCell id="1" parent="0" />
        <mxCell id="rAR7rqShO8Zl3SXEvXl2-1" value="" style="shape=image;verticalLabelPosition=bottom;labelBackgroundColor=default;verticalAlign=top;aspect=fixed;imageAspect=0;image=data:image/avif,AAAAGGZ0eXBhdmlmAAAAAG1pZjFtaWFmAAABaG1ldGEAAAAAAAAAIWhkbHIAAAAAAAAAAHBpY3QAAAAAAAAAAAAAAAAAAAAADnBpdG0AAAAAAAEAAAAsaWxvYwAAAABEAAACAAEAAAABAAArwQAAUhgAAgAAAAEAAAGIAAAqOQAAADhpaW5mAAAAAAACAAAAFWluZmUCAAAAAAEAAGF2MDEAAAAAFWluZmUCAAAAAAIAAGF2MDEAAAAAGmlyZWYAAAAAAAAADmF1eGwAAgABAAEAAACvaXBycAAAAIppcGNvAAAAFGlzcGUAAAAAAAAEAAAAApUAAAAMYXYxQ4E/AAAAAAAQcGl4aQAAAAADCAgIAAAADGF2MUOBHxwAAAAADnBpeGkAAAAAAQgAAAA4YXV4QwAAAAB1cm46bXBlZzptcGVnQjpjaWNwOnN5c3RlbXM6YXV4aWxpYXJ5OmFscGhhAAAAAB1pcG1hAAAAAAAAAAIAAQMBggMAAgQBhAYFAAB8WW1kYXQSAAoHH+Z/+lC1QDKrVGdBYot/oB/oCCAELgAAAAAAMMCCIABvBT6ecfzFn+rI17xMclm1vO7g4tCEm+gfZ0S5gRJ1PcmDMGNNf85QlZ74LiB8pOcoc2XhERE6dMZj4EocfZ/IDQ5zG5Ssm+Reln3VYV7HgTmrr9SremmIgGkHh0LR6tvCgjUGg92y3KvlukpVtU6GitQ+FK9yR6xXyxZ/lGNn6osJWI/ICOkcPfMU1SAqR2yNI6ZVkfX8mnDulYUXxXc2tdfn7THD7KT5+xikovuPlVEC4yQhsVoR/Mc95LFmVkMsb2ZVLPDMIXGXvMolzv5f7+z1C9kbdqtA8XZ2lLp6Wtce01zs8OqSHVJXub8EaHCpJw9GFEjr6hKwsDlLD70brnKHxVdvMtYwhaKTYTXbYqb/P5qQbw/58PO18pdSHOBpVHpj7XMQ2FReatJ4hR3xFfpeJg6zqAnN2DeW8eeNhd5ESlaEbKwHr5HLT7P6gH84H5fTHlCUkC/wpbKs9eH9pTHpwnpScbwf+uqyih/t+FPEZF9lyRhF1CgfCV/Nf81RC1mbO57rOHKQoWyaM4k58jCxeIZAR1uoLGCTq5rEeKSK4Tb9w7YOIZDU9owBaM7nlWsnBh7Q7Rw5R5zRAeo9YLurSvhfvjqhO15F+7kazhtWNII+M8qBzZNj9eX3W4v0gRJdPKFXgi3UrHFA8/y3A40bg9KHsuNbX9Iv6jSn4odDkcRf3/FZ3y5ErMf/ZbSFC9EF1q2UXmpDmYb2Jv3mfhidOJAA/8a7nYEOQDrQtzl4puTaFoUTQjcE+tIMSRd1C+FAbQJqI5HwQqzKqe2pvRuao6RRYs49UfGYS1TSp0phCrb+p3noyhXqoCVjzJG80oJGZTyeCnglCFNha9UFGm+xk3VIIEgm8GWY52Hacw3SzPRupTy/Dqd4LWrWXlMeoQVOJ0mhpu80JLnQQbGD9tcZvpHeBN7wUHqdo4DukgE1Yzn0WSDlLcGYR05iLmdkdtulTcV6exf71H1b9PARoTtkA8XZx8ezxC5Ruc57rg3qYQfJdLlemmkNoARubqKXIF+fJUBd6gXkkym9CHZyWGuInbdEBT6FKTAe+ar2UmamRW7moGru3yj/Vd38qrE93HyjvCyM51fljsHB2nxO4tLNBH2G9E0J+HKMNFyA07sZPkfN9cNGamnblfrqOHFUlWMbVz7yCvfatcW36JM4H9houFaO3AD9DhDmN39UHptUM8hF/iti9sDGV66cSqZaYZnC8ui2/d5pXn5C4TM7sI2IobIsS3X3ZfV6tveYQNXHwsLD+nfCj2tv3pWvF0BCXbE5AP7UU6ABo59IfMfby0BPFNYDgX0eR7h/284GkPR6suxGqXJVBxYU/zKm/qRDvZKITI2VoElWrxFDCeQw3tFKZBRQ3N9s5BeQjUV/FA77HrbJ6xM4WN3LvzeRM/O5/bPy/8tIS+bfCDloAq0YOFR+kQ+GiNs8PwQSqia4cov1dNNOgJ2NBr5Cp8NuHR2RtUhNRMkU94CEpz+7FUesL+JQYcGcYnA2YBugqjulB9zYtumfMkcQ7WZdAK+UVewW1T0qR1yXbE6kH5aq01HGc7akRdmPabQyj5jCpkXFORAj3fPHZeVssqerbLJf752/c10I4tfUtcPlOK5cgIuBryh3tf8u9NU+sJQeL4nvUzOEaxORNTBHQiebEFAUtfP6GQR+otThLcbRrH6a3lX8fVwZp9Mkhn4WCwShtbbIG6FP22whv4acKykzpUCVQB+ItLy8kRVfXCtS9eKKLzWmyddcDh/zblfP4t2PoQaPkam/vVHPe/ifNw/VtA9ktHJFxy9RNArodxR20z5zwmSr92BjF14vDASTMesrJbZdHZ8YoXEDG4P6ghpwMZa6qnJdbx4HPp5x/MWf6sjXvExyWbW87uDi0ISb6B9nRL/1wjMah9AscXKimptQTLwfXXfg90CkhvipzGp7KCzYLrx8KLStap0zskg0S2mi63UVnsgo+b2Vv2Ehb7ONVJ++RLP0fybthOmwkhlef3Et9PA0R7fFQb7omxfVCqBbQXGfVO0alQuZtNsrqEl6sQUG5jPNULetUsIq58nagMY2D5f0J85FFi1N20o7v0chf5zXigYxMmnM4ncctc00uNs89I9tuGXFsTfVSDzcbxIfjeiTwdRSRP++fY6793pRxHWDO3HSZkrp6Zk6yKwFmi9xTddooHmdqDZmjmBwnwdOcC02OwaI5OpIIs/905SgQJeWAk8wbbw6HSfEioL6jl67yF/aJtzr/V19Ql+8R/nQ65ku1SGA0wW+oFm1N/vEnc6n3olg21bTvJj4VOFTflniw2iMo5oamoXZ0cIriDUukQ64qFHpte/uVvL3jdfMuiLoNRmmdirGEsLn0iPwRg+E8mFlRoKWeGekESREdjFbh0q1q3NYgFqIXaskw7STnLRZDy6DVdx8Hu3RR0OfKoBJQ1bRtT2TJGoWfIYHoKjPuD6sBx7SbK1lh12V6bXHeYcCRieSdzl1Fcwp4Wu6rML0ye0nS2YjC1y+aQlcowCUald4HwfbxF54/RmtKc80Cu6fPqK0qQr3Lw77Y6tNfWqd+R5c07XZJZw9fPfcqarn8LFMDMoxjQ7pV5ajF2qoVFHtwEtvFAFxgm2DniKG/tkIUugYGlfWQL+QkOq593kbaU0qjYmkjZOqlBS66QoG3D70CqJ72YH0Mazdkn0beu40qqZOOk0abxHY28XrM5RZbfI3lrt6u+eefAdFsS57/544OwFgJU32PsQY7RZ7uPxTMgypcSVHD7m+UzxYzj5iPdukuWwIqQkbj0sKDt0nfDxmWET0Y5i2DR6qrDnLGClYDdHvzYNlHIkTApY9lkx/5dqpkS7tE7W00He6fJdhxstfro6x6NFyXlBHBdSNVeb7y3D9q9abDGsRFOHQ4Nt8x8YMoQUi9BbZuvYb2wpvuBG7DyPdxbNZJGPQkSzBVqirgXFR9kcXiuRvHxT33XWF8urdfUgFKGVNOeEEoQgSJ+KfS7NGsWY7r6kNpJGvZJxAhUgYDbxua+71ClhSM6DmqHAwd/zMxsajegW9tFvxKbheJ6DGd5A44Bz4Gl3PS7l9HSUkygsf3ZNEaW9jjFl2sTmOMXBe6CWFYj/Dwvz4DLqapWokU5Ujno5HxqEfOUSJDXqBScwxFBsbQHLD4Igish8z+jj3Gf6q1JKPHMO92NGpHukwfXkkEYEebmW3fTRMEpDiQ68LsFfKHXzpGLvwX4Jbe7uICpBBQTsYrTWvsYR6iIMAUnhsVjvp2BoBIEPHuDJ29N1drk5fgnx6Knuon8e/+vXGHIDI8tu2+KVc6vtNuu9fbQ7MrFzdRT/DKcKpWOh8/1lEfQQ1vxtXvx29Zf5FoBdAkldQqUGA4c3C6AIwp0KBQ1CDc8U7vsUnOnHkZ1P4w/e6BQgyPG0yWj5JjvDuNE6HLaTeIDperGwjoAAEsq55+wj8ZCdvuUuhBjBnQbJTqu45b3Uca0iqSO4ZVaabRkVOdhxaax+/FA49ToNESY/1RVcwJCL7NHMDwR5UrFa80LHNitdtzHRj7P/WzrIUBTkWiMnJj8e74JWmqgUDh/Wu2R08GLd1UYkKcytheoy2/NN92SM07x77de/sdq+todff3kYsA5sqn8E/isRJvAYe2l8Xmb5yzO5naRNjyMqIE2jAHx9zYAqw0wSY3OQVGIBecaFH6W6Js9MZX7jvm5yz9MXq55caWWwwrCL+29tYrq6e8QcpBnUEPEEt9GRKTPttZEK6HwSJwLEFOIPs2ES+PQLKwU7r/zm0IFa3hAqgHxOFqjRlgtI/V0g0+DA2Y0lCgoe0YRqsW70JdrSQQXPXzLyfnhBgdXQQWOtXYFAce6mCYHj09KAywditXShZqztwHSbwY3Rk/CyzLE2MXSn9PBm8YjHAx2JaEy1yUNgVjPBOAA+7lumNL71bFBfD4ThCWx1u7anUclA6PPsX1hxHG61XhXg5Jk5cg1ba1VIvLv+l285ern1sAIJ9Rw/O/bCPa/+ecZSCfyh35Kfqw2ONCHKkgbs+U94DitMjs2bwunhN0fySQxvCBjAmSh4Vm0pOESdf5bSHgbzq6L28SoPyIBjqvIpTRL0BsGpcYxDJCRP3BEkioMN4rnmtJGbG6VK7b0wZqHJeru368fiJ/x6Wb4xySUqulBV6cx/CXWL+BBpgiyaFBDLA5zrLmwU4PiKpKPnA39yaif/Hi1xqzkRq6C+XU47rBfizTsF1JvMeulm0m8SUuhTArbz3MoV6OzOzsRJw5MnGqK9jYGny3oT5a04NRbxJJTRt1gPZBbJrPNomB/YKJdNKXsdCnFQxfxhCji+5ZwmTgWNa2zYzdRLrDT/txaH3J2PZMD2WEmn20nDobfOChtWcZE6F+NpGU5eN2KLVup75DPyADEvBCN4yE2GUIyZHeoZE51fGoxp9+ki7KGUFzFqrcdKG3iFYmI2DWI0AATTNVOoJJq7SfXRvqM5u2qaV8B60PSqv+Uj7YOTaODn5RvuyrEhpfXNTDLhx1HkLU6jAz8MzaCe1axd8P0rpn1BTPcGtr9ThtexPQ8ztDcKlBMnkxjUT3EPyPmjry8frPalbPs9xwXIfcXZejN7Ilywkv5KfP0qrcgZDtd6yXqyQ7HowEqo7+k+45qP/7f5JEc10GCBe07BtFj8Z65ohoeT79cRn7QR3MbCkgrsZO8xTiI1w2pnKd3MAnszZBe/jun06tCse6MZFfLiU7MFptNeK5vXMrN6QFKVSsBUy1l5zHVvg82o3+ickvRYXxF7RvzKgPz9/6N0w8mYdEMuw6XzO1v1eCPlGo5Z7GYIdMS0mztv/ZEI77M9LJWRWo+0VIUgZD3g1DyXyI/NZqVXVbv2gbrEo84BsXR8wMPSl8KLZ0lNJ0zWXpsMrpQFuiPmUsNlUNZPJJnPlNq/wxyDsMM0BJF0JfivFMlLerV3rYZ2Z0iTZG9YoH027JZJj7/wwG0Qh2MDSBKVp+UCibG43Pr3/oZrHB/bMu3wqw2vBTPm0VtcXce4M2T/l8sWmkNl54eN0A9QzYG9qGOetkXqQw12QcTGx+SKPsr6o/Fufym+lO2caFECpvNrFvLmz/Q7H4noyi5FEDI/OvFv4HLgWDligUzHeU/9Z3pD8h00BhsA4sblj2LF8tN46h250eujN6f2jbL7FFb013Thq49xPXmKSqr77Mr7j3L6c5ZHD8ssnhkJzU0RgLTm9frrsN8xm1g1LGZysXqljSm7Wwiss44N1FPSh7LAkUdAkgEtxZiimbpSouFAFHfcgnJBWd8N3LhXU3gu6RhQDKMpXSdBO6COrYz/jcthVT5Uf6UlrLWTTrEjN/kiaQ7WW+/sQWPW52BLQV/kshP9BDiG7Nta8kzM5cqK40v8eXcaTGo8PZeNLYProVSR8QPoeawSGmsOTNp+vlQisScDwMHRuiaGo1nwiTxdbD2BKAGq54rRNXLVb1UC/i/P0kN2bt+n4657DJFmjnUboQxOXS7KXavmsJlmL1hylYJuymk/ccIEEmh6rXTTc/8HHW1cdlSDNl8kBG48kcWLa32eW1/sJT05EZeqB8+WAYDFg0+HgyMjCBaL9xjy+naspCTDKQy0lhE2tENp5vSc9g8zCG7seEUXb8JIFuGMKSq6MzZKsi8JQxnl5s2b3xzy6lldpvzjHSRhwxQYG2GYozww77WvEvGA6KIfVwLb8b8FrtaT+f44D3dtMZ5ROYUtRcIKrS9RcFZaZJEPbJKyvfdHkn+04TJnSRPGnFi/v5CiUkFdig8T+l48DJ6rsIAXwm0a6XZ5OkB7i6nID8t9jvJDuh4B/6AdcZXiptgB7M0uIuQ0Mg696rOUgF4oZkxX1gC7gZ6ZpB28j7jh/rrP/1zrIeG42t8WLRz4MF8lueT3vhczjMIrqKZPk7cMT+vI1p1EboC/CFz9bqi0bNDIhYM6QUFe+7aYvbnDEiWxJ0XqaCD+HzdLKKjpt6bPQ4vK9rKH87gL1jjo3G37X5mG4efuD2CceE1k16AmV0Uz85aJdznZ9323QsBDeoMWtbGgI+AQL3e09nzAGrg8k+rafSpwCZpO7dTjoTOWlD/VdTn3brxsf9zZ5wCi4ew+2bdbJp2UztCRxc6rTT5diYn3hhCxg5eB75ZAf0SmjpEnauEe1wvwWOUnhiSgCBlKo+Av05fwCeA/zN79jbsRk5KBZuZUPs39eesfLti6u8UvPzsmvTsr9uulzozMr80VKzJhTAz6MN9ryJSeaFh1qhX8DP9q4vBmXCSsoavl7hNhAwolVMkPgKfoPwi0WjJHyRzxfrBne+gqbh+png/9qRns4i+J/IlA5oBfwPlQ3cUck7KGS/rJYKUDnQVn3Zx5IqqVcb2fM2diDGYC/K3HucprAEEne+fqZh8DB4QNEq3LK+HhkuNwyE+/AxC9248XtuoitTwJiTkB1tp+f2eysgevUiMPY0Tk3z5QCoxSnLGgx2jFUlPeA/3ppI6PWBWwtHKif/9i9rDRJsuTbgdGe0yZt3aySiUNjQlHqbNjiQUOApivmqTdi42zK+f7yCxX2wn6+OAaiO8DN9mIfIJYicY2XhWLrogJLMSKwIJHb4YQ2niKIGk147ap92a78yTHLma607a3Nj9CBXwf1wI+L9pNLcj2kz6O3eREMT0GMNlKbpoeGLv3bcvWZIOXdNuqYd2moS9USyU81CHodjCgZwGLN5SN5EMSWRbCtmPzzrYfp8KaDHvsFMUB3q3FtGrLlAqb4BT6ecfzFn+rI17xMcnX3tmf5RepA3CIi+6lFfrk36jt6djpHKJHVxKieFetofTbq/EH4nudPfUQjYYp7aLYbVvq0ykHON/hsqmUFIq3RZdEbolcZXUvVp8ByEM8ip/lYaSb0YJvdjQt/37+7OH+AvshhyVLgwZgA1n5YrgAJIFMjpi3EUVpx0qjHv8lvEgJmKdTPmRiKUyEcDgdgLJY1gSLvmP0/8LMRQ8gt7PVj6MS38OFjZPpQgKyT0eDk1qKmRWoGnrz3unTlU5Sdyeair9UACbSQJsLapa80ckELXegibmPPJV8wsl7p0RdWDfhGsF4poNc0P/6w9uGNCuNF0zRS8pPgQZsY18o/dXxVpE37x2NMNmrUZ14FcoTAcXo7a2IDC72L31uZ7/Ged2+IstcYS6v6KjYYniU5todnl4DJiyvnvsKLJfUp+ULmbb4aLTjLL0eQs5WwAzrlG+5FbJo01HS221GNXQ/QjUrQc6wS3sjt+XhAwaBidcQGUQnkJIwq9NXKnLnB9kpS5/f28/dcg0bPWMbWRWASYCh+SPwPV8AO7hXE0eigKtD83RZ29Mzj1n1Hffvo7VNl/ulTkssjQBbxnyy9UTD/BVrT/ENEAnm0jPs6RNPw8vmZGgH7I1GoeR/4lkj98IllsonndgrWmmuGqTxPdRHLXp+VEQYRYhzqmGkIImVLNDlkOeSdKOGQdNvRBn4OLDfoGdS7TDBWGqNu/dm2eFUi6TO5CMAltJtPpi6nTUtanQhCRZFiwoH3RFyc+MhphZEqH2VIIFyIhhuj1Q02kwOq5aIyC+2QLJ5Nz+b4wXD4AGwuG5JtqSHT5vt680KPafGvr9JssG7pjoMwsL3uV5LVR8mEq00TScpfExQdrCRCez3qt+ttrqy0EngCugx6ashmJhtKcy4OSEGPQxb4VCh3E8Afcs3ygEt37yPDq4bc3eL0wzB1XvTJSvXNGKV53BQrzk/P5kH4+uu9sxWfVV3AH7k2lSl2lGhzlIBbvBDoxDO2/q14WPzhKPB/0jVjHdHB2yfDElZwvM3ghoqKxBAqY4vA8jdxNIzC1KHDjudUF262loizuXdYRYCo2+fuldmkriqtdEHzjPBia5Q+CJ7BJB9AVig6blkd5+gTteI7aLXCY+9Vs0iLZsNLfl0vorkiSRgqy5AmMLy6KXblqb5Mn4/dPc7dzfMrs0F1eJ9B6qZBFzk5f5lZyQGhRR2SgLxIKjPE9z8Jk7nRSOThSq+TfGbqBNMbumN83ptga6P2+ig6C0+BJRJsbmgDggh0iiuhVePlushJ/OEkqLGiH3Yn1CSwe2UgT/+fEOaO9A+HUs7t070bTXywX2o8LEEjAFKFzEyJf094ZAC2J/ZK/GYkCh65KYAoc6OIRMzSecdip5/k+Y4lKAvXIpQhGR8hZlIXcge6b+vwqqmH1yyZNl/4PJ780zCtYumBVufWC9s9XO4buJ2pBOejC5a/UOrru4OjnXbwi45k/WXJv0uIxBUYxyATaei/id030xHywCqzf80603hq5/frZ7qYl3SdVQvxgNqbt760IevWJ6KoEnNWvEkrxBROclfs7/L4cRtrg5QPFxuu6iW/n1+6+MXgy/2Nqo+2B+gdagzni5U5eg0nH4X9RkIXJ5aVHi/LIUotMnfQpaMvHyEt0DG+XOCepV93dNCHrpXN2VfuN4RjKaOVgbaZvP6gp4OO4O5J1vrF75qfrfr6W7dJGiMXXx4NUV0lkA0XgfIzf8rSwNcnd9z2TVEIaBxSpdiXpd39scUNw2uklozckhvvCuSgD/WTrqdEop8GMO2p+j2SwjLN2ykEc0F1mA7PlnHIEGEnyrNkwgcq2CbgvDv4WoAo1DKoZAw8Zr4u87o4ajlviqzeGquiTG2x3nUMA/LbRjpkhvdurL1h6A3/kW5BiZGM7UyG2PIU9FqthmpAMVJO2MfT8/tO0528AjDSh+Wm60qDds9JI5VvVuxjUlpOHXe1EiIFf//4sfWGukHvBLkRO49eg/pqzKOkb+IndXb1KyuhbBuCGAQ+nnH8xZ/qyNi4wTdtOf5ndezKJSmEfPaiVNnLdA9JClTdQcJwxU5bNvDBtY9HbOUVgYcTrcZ1E7uaqXnxSP33uqp1aZVGPiUdsjiYiIfLTIoByWvE6JWUFuv/TfV43M7gfRgHBlWWx0VrERk0Ct5AYpv+99/P9InSdHoaywFevOmBNZBRxWoW8BpVlIANaP4gE6g8qOoAKOEzSzq9PE9AR/OCIsXJihzgqCRd5WtZIci1pgjA8wRS2EkkuFRwGsVQRQyXr/b8LZj6NAv6Am9CjymoIueR6JVKwOKvXZNovAzZ908pHWc0pWCJW5q1zR9H3Lf0A7RzX+xPafxO9o1sGIapeGxRe0TwS2XbSptRRbSJlXRyNPjJrH0Df62Kf8J8oTT3HP2ChdDMr4Xg6Er3/zZ5dCEM3bdsK48NTXlVrv5tXS1c5ILHTU8jPFMgdxDlg1QgHKzxB38BmmU3QlCTGKMYhTEnxAXUFe89Axj1gSJ+f7zHOQ9PK/Cr5lirq+8eEoMBQe+fvY4hCDC5xF2RfHME9T2HPPx3ChRIWrGhAC5WG7WrFEQN7L20tqc3uy/yW0dRdb7Q7MlPwvAIxOUSerZZN/VPbL4naPla8tL4aJuIBckxvEEMfBfvJVgGEwGueRqnmAczkg9VGk7h1f+Cc9uIhWKJ92zLuZKWwrPZHvvQO8WZXQaVGQxs37O4OTN+P4G4pwtuNgnLLmJS6y0TAxvK5lo6cH2XLq/M7nAWjGRxNjFVnIg+bZSF+5KuiVOEwSxXpGFMiOVd8ooEymfubob4Y+WO/tLWzLry077suFRqmeanBSQDs+m10kd1THbTsww1zgb5iR6ELSK+ScCP+mf9tPy4utQIBdv8z3fQpLVrIXrcyedNiWNzijuBIuCzGN143pM79zeulBlcvigJKC0KVFVm+HDlz3zPrV6B0DQjBy1tODHqmFaQXqz5rNJXqmBN7wLfLKik96VNzG/FNO3Zk5uyhlSv8gKsnP4WuRojuE9Ax22C95OgD9wKMJCwUp6938Na6IVSLaIRroTIxhTk/iD5umAe7TR/30zg/Tm982eIgHCybP0B4zcTQRIi4N4TFxHybB+F+OxEGloRH/OUPQ55MxTVN9kMq3/qHcB57Iww3wtN1hTldlugMO9fXIKpGBv05BglWRRZnEILbe/PvWY6yp289jmmoyrXb97thF0R5oDHj1Z2sorq79V2JMIBpXKK5pE1pGugN5JztBjdD9XXUrE1CQnU9lvkak7RGLeAajeBano79EGNiHlOwuBRrnN3jO2XWFw4Cj9v4RkNqxf6+Um6Vv7dHzyuhujG4rWmkrzkHjPrr+xn/UffZMBfoI9QpLvjF1Sbq1L9l0XhkMi4GH6121oOPjzuYNLgWN/tCkCYvKEDPp5x/MWf69l6X9z5DWg0F2csivA0ggwEdDquYSQnUF7oCgbdxKKgE1+dpsX+/fRIK5lYHvbCslDyBw4/ebkXQxG8KQAm0u2RN4Mp7ZS8L7rfo1AA8Z2Xam1BE2c5yp2R/pttao35hT008E46pIHotxfmZ2X8hQk8AZeGTYZzdIPgQYoKf9itvBVboozOA3sHK8ASOP4+d6zJLtEIEAlHBj7Psa061/GN2GyfQTtzz/Q/8vL+Ony/jRgwYAbB+ONbSZ1tPzPB1M3LYVdQ9UsIbf+X+lpk3bAMQ3qSq0UbdgNyKlFzJFoLr/YbsKpJrg2u+JQNWqs/bmYmNS6Acj7I2jFJJ1Zlcq0gHEn0Sy4L3VEgfgWd9Y0V1k+VGwDOVH0RrFo9BB7XzXK46CyI4LS5ma4/8HFFMtylI29pgxdDxFdJX94bHzX85dtUGlop8CGCXz81aoybeY3baZ9zVhed7yKWmKFfoHDTkf/oC0Q68RDlEeLNoD9Xfpbo087/Ny95D+sIqa7oP40QyJAJnu6afvd9dNFqRnU0YmjoTx3Bn060i6t35uP6afWY3C0txJ620xyTG0u2hNUqMhqd2AIWHdjEUSBssLiVIeE6HP2EzfSTq+sJRIDMWgobg5kAQBTM/eVgHu83tub+mk+iaGmROr/R6u/TY1OyBm06Hog0gs6qRMEaA5Zz6XALuW1U4K0sCg+17nvxHUDNJxM2IzeDEpcgqvRlNyzIJN0wuPOq6IpSaqa+NAW53tjRjFsEWPYXBIWKWcQyQnVzXP9C4TtrcxoCSVRNg95a+7pT7A5FzTMgydDvW/GM+ZIRge1PY9DiPV8VxyrJrTImnuhouznIZVwLF9coc3qRVRHvigzzsjUUmLpef1KPoyCIIIF8kS5DsIc8vf0BR7hp9eIQ000SCZWR+WVAGDfGfCKg22ydKI+mEjUcYp49y+c9fB4AU+D8KDLJ9U/F5XJdPu853Yaj1oWUpbRzhHdJC8hqxCHqupXh9OgqrhSsiAndUJowKjH8v0sovW5KXsB8dNHs7rl21Md0yNv1itWSUEjyimIHYXG+G+I16XDtQug0zlk6vmKnmHQTlt2fchIJlsSESrp9dC0n2WuDSeZ4izm+ui3tYlgHjqil0KnF7eLorDrpHog9a53E/wy+01nmZBQQwBHyODOQduRHqC5piCni31J6yNiHNM56AoKcatuohlg4qekoe63QIHegQgB04l7VYOAqQQDEZwM+nnH11YoDfS/mwAhKrjB1z1ThYMZgeRchxkskLdyz8GPM+bpwxYxSoXl9SA8v+jwTtgI6P7gyRWkQPyeg7mPlICVpaOwXPPlCqkoGN/cMnQvCwjq0drs9JELgcHQ1UQ+LEkD7YfDHtHdShzj7oW5D8EuYh182R3Dz63S9moEZuM9zEbs2u8vBM8TPwqlEELiJ3PwPW4qMNDBfZxvgMVeSukY8yxWHrDP6wo4G+R2ewoT4nnLArB9uf6sl5arQO2DtC85NrHRlx9OdcTBzgWXPH72/gr0TD4d4m1t2hyKJlT5U6NhYZP8OKqDKTqTtjwY4HDK0CcxFnugOc57h/83A18lTtsRXSqJobBN0uUynTl3K9LoSdZ1o65oZH51goLi9fdZTU2R8J/nkCi3/KdIFwrSBUeRA2FCA2Mlqobs7KM1qnpXqvYktUaKXJEShUdi4INZCIskxDsjSAHmlRSct9boTpJNCLQLWTIaL0h/RsGngtnJbWOjebEsuOiQFjphzrY10fX14UaXCxGxKCN/skGLcdd7ON28bEW1gyCCAP16kcref/72oHyoQQmawq74MgwjSeD3c2p6rohtnrSrdxaxcJWGSh7ldmE4/BLx5rTUfl3A6xZHLJTx/CTnexTS3J3+aQxmsl0oMv2PkuIzBH3238/+GOLY+N7P5F5YDsAMxtk+xzkbbOrA0ith+qt3zNTKOS5yg55dJpvyC+Mmn8eiz2a62/cR216cfp4V4SuTq9TDbmXGD1udhoyaeHLSGFiAqvdMF6QEqEFn1t22BV1nneu7LLer3rJKF2th4j/m/7YzqOlLfAFCK5CURbcYnm4gqpt4ZKO6M4wGINY121Y4XkLLmv4X+AFLHqCchaZNNkagVq8kZpTfo9j2Ct+NmORiJvnVgZcS/9aCKTJ2NhVbdLpi6IioCHpocXuRItDL1u7nmkOYuwINPlUbiAcxXSoBWAM+gKFo+Hq9DfRlpMPYJEVsJK0Y+l7w0Qiu8duAR16u+hBq0siBpNgViR2qz+6XH/9RNXiYhLmfSO1gZCEG7oERe6oyLKuwM9OfU/WiqV4H7mzfsTZXsvM+2W/U+vsxi9J/k0domH+u/QBnqevpHP2Olj/FB71PnQsHR2XrL1vHQ1i2eNXezfP3PFAOOWEiCLYHyaPYKMaMkLtFYMMGPejY9iv7Ps1e9+PoZF9ErSGvKpGTXTOVrOUeXNT81N2x/FGw8GZtebBLEuxnkmVSW6S3VOVZhBiIhRWmcaOCP6DVuwObme9Zy0yPtGL+4BerWr0auCWKmiltPZ/0MEee0dqOD8laCg/Cfmm9dfe6L5kIgIEBZHifc4cD2FtvwPkW24LsUhAXEJCmJpQlbJf/GanH3+ZU09oiLgJIbf5Zuq69J30WRkLi5NgGXqQNPqym/f7esAQEf1f3JbtwUgyhir7WCIcGgDd3pAkjVQvNcLAmPJCLnzgraFynVLiD72+aMNJw9/qr8wwBG0SIxtGxsCJKB09G7AdqgcXL3NGV/cTABM/d3SMBeAD0NwNc7KQIvH5TUcbiILtfqAgILFiE0YD6HzymRy5sX/VlS4pxT4hkhGWhNqaxB1qHA/a0x7Ajj6keldgPmXF22zZbZaQjQClcKNqfMeWgcgWMvKqKQvVxzJZLegslTq0JSL2jJbo/ba3Np9Wgvv94GKtbWHHGJDRMmVxIdsCzTIuXicmNPwp7Hj/o5qtPaCAtdimNGqC6DZJ+PvHUVUE41TsZLeDEtTC9zCihSaWrr6dbPLHyuEG0FWB6rQEeoDf1VhFOF68MeOXd+GJBryHjTRJ0deDtWc3eKGCh3QrU5KL4sK2mkoWZ1AZcKw0cRlOWESuFq+eWJh6dEQDUFnm5i4hmUrJwE56DvE/Qun2/9VcrBJcKqgANaejfjqU1kyW3ByMtGBMtIyAcFG6b6zB35Y13IFrjAnuDdQidONHC3J1xxdQERAiKCGuOFe1fiRpofnkHkRt7lAuU1szAoQz/O2QxVeP2UshTtzQS9NME6RfRfCMp2LkyDGOEBMOMFZQpGTtkprwL+9syMw6vpSu/RltPVSXNiuIQaSeiO+VIa0UAaFy6f9yGeslzYRYRdq6FJV400jeUoJZf6FdpchgVkqWQkSRNgDihkdikfwBwGb/E/62xllgWvnCeCr6aAuztVtEDOIudWtSplwXKm/aOHcbMquV+nbD+zU5VyatLvMM69G1tj+bSYlkvdivSO8HXVNVOKyv3qAwDBdEsMnkMaB0fwCyNDi92a1pX5oWD5afCL3DCGiYmOb8rLMhz6qGKen7y0swnO193ijzGsF5Vf0dgxdZW5c1xHUbvyRhNRRfxE103vXLS5F7xzGs+QpiXbDJlrUVTWYZrwhTwfnIvbO9KmeyEDpcf9wXXI6rdUjWYJY+YJID7Opex3RyG3biNSrkAJIQ/5iuowzo7qIeIUr1R08WvmzUPeRJERYLwdlkZfF2jpfNE4TPG5rQ5QEcu6OJfpc5LbDPkkmN5iOTYhrDzj+/RvHdxLS/dW8rqrg36Ek8atAlgVcGh93S/UqYp6Ql5GvyiyP36fMOvCiJm2gNihz5tIregerHnmN6zAw4hsveBDVnRfg0910iqrpBXYRLY/QHMijHnoLt0/yLAJ0J9S7RoMCxHOKRkevxmUG851yDIdHqD5A/i4mEuoRNbWaSf7iwtJpJcbyNsvJu9Ctdgzejfn90B1BdW+ApJQqiB1XVR0bE0fartSVhW0rumKo4Y21F9ttiko6nUYE6M2Sn/8McLYvbue3oeGQwoFE4JU6AI7tE5CGd0mWGLIIxqZPW5fekeJYAtMcW81vYr8+HOuWpxBgEgK/tB7/0Kh7okbYmM8fYmcL3g0eBVbs8MWI1Ku3jpZhYTXaOtYYUWGDmHWLWDWMovwL0JKxwzA0kpAZZmclyUTeazQpCZ4kUkSAAoKP+Z/+lC0BDQbQDKGpAFnQWGM0UpFf7/QD/QH/AIEAQaAhYAAAAUUUUEEEVAAcAcH7Zcb/eJMQjRB5cpjBzkEf2U0t1f0kvxXTAPBd9t69V7Ul+QuOY6mrQB5hT9ljvfjj37pCGEAKcDSVfshs5vuEtDyhyVHMvbGzejczQpsVO4qQ25lNUxKISevcZVQf0y4ilRZwa51tO4gUxJeDiW89FZoD8nivudojigIfcFuPrldGT7d27MnpDo1TLTafqKlhMnLSRRQmNYpqT2p0g4UpsZnAHCqK/cHAuyUY4Qec8JQVVeuabSStjVsdoHFIFlFp85D2VGJaf9jJ3uV/UfduHOjOfETvd1YbVzDlqWKPpeXnuC1pUj2EjntylnFphiNS2ueBgjZXuLLTOKLoACIqjg3moto4RPD9fU5E+FssaekhcOMG9cC8vxW2Gs4SnF0Mc6Rhx5mYYq6DjC0bdcspmbiIcCPSJH1c+8WbmgqHKQ6OcHYtjNgOxPTJrWQ2vwt+KzXNJedPQ9gEcjAHqQaF774qotN1akol7Iuaeo/9vSvBR/MllNsBo55UijDThD7V1WOwrmikWauDxMvAGSxLLUBA2v9oLSoouts2MmvDRF/e2sJ0UlFfOaf3pKyWxQPDmeNo5Qv3O2aemgsBN4iG4VnAtLqdA7Cl4MqYMRXqeq53alauigDZkoR4tj1O7YVP9fWfMjo9PefUzt6eOvC62YLatug4qMo5C/N2oac+q2v1zjTZ0TXEMNi/G0Zj3dtGuAI9mOTHSyChe2YUVVoec29/37ZGVTscsnoBp1nkOhb68lNsT2xItCPUnSrE7ZoCrdNQJrfVRZNwJqlnRjx3HAm98j8V+lrvKRRUU0QiuokkE9tSaC7Z/V65oRLUdR8QrmblR2iltoW6MBBHOk8MYskUGC3uDiSohkZd80k+KZpsUvaHfHOsKx1g72PEV8HvLPxq/kuGmu+F70rPRbAx7kn2ygBdSm9TL0wwzSpCX+LwzlxaDKaiGUewOkbCh8L6lUw3X7Z8bCzPfo6y2SoPH0dMJPoFNLC5FcYfC9Gwf8CfO/nJnlY0dPDAqM/1rpdoL0YTHsYZC0hWw8tDt0oV/B3DAdjd5nKeyC0XrSRoDlZmhCup+0lZjxKiTHBC358MLqN+UyNQcv7kxCLRAdTkoSpROMsDi6vgRUEBTrSIcTnbBsaiQNKX/IwfqsvDV1DgaROw+zQF5vSwrFNyjaLgKRcUDYUCSLsRoJDJv8QO8VvgRJH4/CV1VLhaT/Zm1YqrERFV59PQhWmwsxcj5FL0boOeWDwhMyO02ooj9gPNLooBwJBaIg1hRz0iimjH6jWdB7dlh9EiXk/HaxEMjTPiFubL6vUZDjdVeDGBrnoJ9lylnhWNk8rgshQ25Se92/xRNF2RPSd4zX4/a7n4ztWmmwcL/1KiKmA4U/9lCBQFAsdED8lB/e5h9qVE04zg9wPLAdZ5pGjkAGJoO1Wk0Q00/UyUUvPyNm8ph9EErhHI2vGCslqv905AIvempM3b35QnjdXzAavUng1z0DRHV1xchhBCi2HjZW+Wn5jrO0YyxJ5Skwgi3QF7sp34cmpuhiDPSfrhsvGdn6NFDKUt56d+326FZV20wAUdZwxkQpjx2ar7rJXXA6l5qexvr0nBKQCJYSAoPRhiGWvu8rC/X9Q5y4wORYXVFCm4RzrP6vTlbajKCtH9TDf7OU7nvB+SfahZr+iMELzYN7Sw2NplvQb+RlPdqyroGRMxIONOwT8UVuMPKQ3vdUZqoaROP+f6fs5ylRZqe8jiwJmrRYyDNhN6wjxxNkGhZaP51MPja/W/uY8IdyILXResfvZrZHlTpHjUba2dsCfdKOQZCE5wDRnwA6zFkVb2xwpgRR/F8jXYXuj3cZMDUkhx8lZ1+Jvob/ICpPt2jZMks3kqtbC3sIUsOpB/vLqGtWGgf9Kwc0M2ZJvsKJ6FJJ6OVJMFhsLpSlsXIqvVLcGWqF62MAUJfemlWV8QWeg+OkX9YY+Ke4QySr2q78I9ZTm7QlM8OFiik9xwtuyxrYRq4mVQfX58XpBenB+gvYxQ4JQMSS8DsGq5ObR2mJ/YhiAHCJco3m0Vm6YH11WsMbqhXTTy5P2tvvHkEDWL3YBima5JEAUYRa7eZXIB9srCW28WDDCJx8RWAXZknT1WsT4oYg6kpeK0qWdeOdCiOse02n9lUNAGwiMDvfITZiZ/8du0iJB2qi9/wb0Dk9hXl3UERNue+guspMp1OQNeFfXcZU+kY7eWnIh1UbF/M5HVR/gGBbYRS4FmiU82gt1wdlFK8/4NiiPBN3/Hax7bbiCSvrb9Vz/8XJyCAViLrn6N5cyE42LPCwpoaXsQqEqXDwk6JuT9naVA4iOXn35UpCCf6XXo3BgYk2WW7mJmNC2dOIG1IMZEbnapUN/Hv8sjPWoS8tpTngmAgxdowmbNMcUlukNlOVlMzI/5NUjnuJLjYFIQjmq/I37Y1ekXUvjlIbZ3zgbLpTetzf2npUdqYjKj7Dl/Qo+YlapOoEDyPybJkkt6K2C9DxG2gHABSJd1CxKPfpcoeTMDkbz7f4ScaoCsZ0JtJ924ylT6yAiBwftlxv94kxCNEHlymMHOQR/ZTS3V/SS/FdMA8F323r1XtSX5ErJ31Lkms4q6WKXWhccX6b/R9ZqrNWuxvCNKYGy1nAamr1p6tbi/moK7K0J7MyJU1ikHQlCoEdtZTdFZHKlTsIpxGhPyH1uY5Oo5WDw3uDwxixAhBUvTt8AkNDcab8lw767ihrDyqji6yOopiLR6ZxTK7FK1YvijkqHW6kRjAILN/BOn0LjDpvyx3Xnk1x6VatsOLrslhm08o1pC9q6wYIv04IUi59gObo/BbQTvrCQA02Zjl7oPke90JSdxQT23iWI1Nuh0Jtkgul78ZvxbuiXrS3iaScwT+iHYYb/tOQKhkvtfOMuBq/Ud89+cayLaAInUk7zId2V8BCQ21/a74C9WtCfdVzXUbjuLPj67GwmgbB0NNbTudIDxnC9NaunAwm9vITBVyxAldm6fsb81ulKdOLtoOIgJsKlLUdwXPsK0wxX0lvrMiVLgkPK3AeW0SVT+SgYgDILVoR/ozzehZwoeBQVwLUbByk1SPzhsNEM8yK9ZfyLfJiyQHXIwYHG4QpV/1pWMtV640Ivev9pq5WpICWPzDjNJc3qlgjOfn2Vv3mx+u2wSIR26Lv+car+wXroudGhYlI79wCc4Y6liwcZQ+iNXpXBHihJ/EWVpPa5TdRiEsp3rEZco+J2hwdzM7iBRjQBQflwtZAGueahFoxHuUaEChnR2gqBxTbTRAaJChsk61vrqHkCLH+U403xhCsVio3czndNVzltjM3Dysb76aY8UCbD4bBBYqWKoJ0EbSB15LPs3nGQQHmhskMgXoRbiDLKtKLA+RbivzprILTURliIi6KZb0pW+IuVMtDeykyest836TJJlszGKgQpPPQQCLeUIwTAfIIhoG4L5y39rEp1BaoSXXXwkcY8rUaVpcKvM+FadoaGBZkmIa+S0gQbCeAm0HYAKDWQpi1NV4NYUeHjl1T8/0clXwGBcLhx94Avt+l6E91ff0zft0KWvCTXcnRnzei85am8GH6sDeO5H+dcC4GX/ui82okuelOh6WoBL+gennJhZWKYIDDQ8hucI2lrTnX0eZmnW37HJPaKWwgEkHjpwh+B5YDdF7g8X7lD9Vp9roUv32Unp97Ik0p38sbh8TjF3tsFXr6FqXSCb8yGBc+cRVX7NyT5vBUiL5uVO7L9AnZ0lniSp+ps4A2MHN+gBFk/6FgYhm8/zH6xyZTk/tbJrd9fGqbW6OQBs1LfC7WT3D+2BXC9x1CUk9Z/pXgvicnIVc+A2dib/VDZYUn1PAN/OH92gm6eRiMXPdcWMNpeqYGu9rSTcCgPnWtVbolD1R2wK6cjgdF9QB5jTp9wvKQBEaA7tpaYvrAFxD02TlbIlA7MrOQFCvza/QH6UEFQLAjKXZ4A1p40zFnTWqbtfC19U6BbfexIbzpj5vBFuyATtMdIWUp1L+AGrTnwqssAMm/T8h6hyAqc6U/btjVyD8DjqcNi42El54lALd0Vgux02GRGTh3vy4xtR/XGb/gpYqr1kOsJM0W3H4Y8VTkcCf415v+7l7iuAbMNObv9wTjcknIyjsp5vb8KjMPEcImSXOZBNvrPtVQ05Tnx1aLrOUSRnLxdnzRBKIVnMeepIXVgvobXy51ilGRqTw0sk/JKnjmpEaXbpB1NTMUtpXxCDjGgsjDhXnLHdhUzO7XXtvr3e6N/w1MXqdsZ3Ra6AaDA01KKqTbZaAIoaJ565/ygeEuqAQDy0PTQjND6KUFuA+hbE2MpdTtkEDtnWQrmr0zfLZrKoYHkOPvDM+VnXtKKmudeBbBXQ0E8SgqyEO43Wz4e8g6e/c1Q4cwZGXDTgDrzuiNssynmYqvB880yeB1GSrJw0yPMJJ15lokD1c0OvTXPr9lLMno5DfhDfleSLpSA6/SiL3RLT/DBATWWqLXmrQuk3bNF3YAAsGTX3twBoMQ86IWOoQyMyxv6swjn+PEgq6gk+Z9FK6PiMIN2GBTP1NJoDnjJqpADi1Qq7b5l/bNNYuRnhuM1TvZiEcdrUO7VdHOi+r1e11MtorT6oVGx7JtKgdp6SSM8fHq4frG5BnFUsEcElyD8gNrNSFrdjrJaiDe29hY/QefJOgWBCVC/x9aP6BUm0/EHppK/N4ISpc/3nv/jhdhYxq9J0jGGgGT0J1rDK1VRtMFxrCPMEbsUXAB73pUVUpi7PCd57ekP5zQQ5JA2jeyy+dLg7Dbueq/3MMNvDJCQ8pKxB7C4IUPbPpi5zKm5+CdU3luUhPx4gMZHR/rW4jNp3xDizl/EfRY80KDl5WK4JE6Srf7FH2x2Oy0PTbR62Ri6MqlX+FSflSNbpQzqkMq0ofRToyidzEwWj4Z9ZVt62oNAvh/nD0uNwMVKJCFrpohrgb9BBRoJEp2asByczWYEhQzhgsM0JM1cXwg4ojD1NKPMTK8TR0J7gOjEc28e4jMeJ1cfLP5ZbUSrFFWxu/BcF4Zt4ty+yg6OCXRUYzB492x3PR9UD811Cr/gbV6SiqYND8hMt42wJuJSGmogGkZWx7d1qQpqcce643dIf4fJVOwQdyN0TZZXaq8k/amhnVUjslnim97ntT51UBXx9VRwsGAC25q4mrMjJgCc9jNcrkaTKKSfbBICCiX58jrMADeubQPt0oU6kkT5ij4z1z0FUoIW/EgKGALZmr3BrIByl/7+V15zlMMlC+bZc7aEwh6DgBIm4f0/o2oleLCg56XLIE4B4Y3cL4jwg9E6zjbfts5Ua3u42ES8TCeKVnwb9K4HUu7JlKKVTnAW4C1JGxbM3y4tAgIKgWUHQyeOmMXQ3K3dauWHI3yfSARQD91JQTtcWIlfrpx+4SOK9mMOam9lfvyfivU0NmvcFkdxe/bRgVvK4Gu1aWI39IxmKrJv71OsU8Y2Bd3dmBbETRfeB5bKFdvfq7mpNgOsneMHT/RomqKotRMv1BmXfhDg5Ta2qay3YSup3Ihsvn48UmwKzSGHUvu6eH7DTdWVGmsMRdCk+kcsa1HzbjYMLjq7aXmrQTBL76dQFc9GBDshWKCCHOu+3jPdJfCaLFxW80hXYYIwSUqVev/5IHJP8nJSE3cuyJoQN7527LpV+FR0wFq4Xs/3hE6nt2RMQrgEZA5f9PK+OR4cj8nLghetB0uWpu+42gsgW0lU2K+iuMBYN7zdGg5gRRdWP4KvWbSQTX+lKJcaVAMhWpGqt8jEicLtQPuKQ+CEWgVqWGNQxEPY95FrwTELgyiGkcv5S9vBHOhdnYtUzEd0dgl3wslPJyXM1VaoSoQKNy4qaLpGU+EpoV2vdhs0SH6PB+Uh3TGAI9MKHJUnYo183E+runfoHzpELXcqY+xxLZ72UAk6Ixuqa+0BYPpvMuLBUxNxw+Yc2gyQHTmQQgeypJkElbHOdQEHUxLTAQRozhfMM3IuRPgLo/5bcXIX5PyUR0bSHTxDN9meeUWe77DHK+a1S5BXSIYY6ZayTraXKvaI7GPqNq5DyC8GoArn18YHQDjfkVpztF1Dey4X2NUGNJsSyoL0V/l/OPU8z3F9dDQyBArsBTR83MtaaOGcgQ3bFsk/VceAQ6vB9jGLN3JuDLOa3kS+IF4DOe3cjsCOi5x61Yrm3NXvPSzMVC3tcCScevxphQtSgDuybz/H7vwX8OxcVyy4qrj03+h/T/dMdl1wM6gsrqkV0sVKcIscCUf6D6RVgD0jqNNubkj8C6DTitheIOtziJJTNA3cweL/7pPRGVwoatxyl3Peqw6+8THfdFTI41v7EAMEpKxWJXMd4OpN49vF4rqeibvR7qDPX4fHaHaeowSCVRLXyLXSVRed4hLKk5GC+HoZoRHqFW4QrX6hGt7dgvz0FnEP3j+7T2xcbYe7SMc3QIE4LdEa9T/Rlq1y1wie8GPZFl7QZjzWS4icpynpbeL+6A6Pu7u7miiaEcSfJBg/0wXgZmQcj6ld16nHblVJ3DCoJonlH18VULr47LFe1ERy6bgHNcs0f7ujLkAkVu5sxaG4PSEIKQ9hOXWSTUb3DOLbwKnsOOtCl8UO6UVV5pnv08YwON2cRPxRQn/mUat3E2O1UBsXHtsqhK4mCvlacoSowbGBK/SfPL1OJah8l7e6sV/N74sVO1jw8Nq9smD5D5eGDuoSuVwxsco2MmG1aMY89gKkT9XvyQdMtqhrJWL47evak1dGjp7jinowhlQviXU0wOxEsENqseKQexpKO47Ux8Nphl/JCcBZNVV2h99TP+BrbOCYDlfIvIaljuL9mlubiWIpbfbv2+TvRIqeRSGvS3r70h2gTOKENLm3Ws16+XlgT8NgGJSKIklHiLyPOyp/ZOlkyYSwKKQQai0ribJr6cj4LG4L6Y07JM7VI5IzpikIXG2q6pOlk48wdhqJs76R0bKKtKqhaQEKXkuV/Lfh5x5dbqk9TbHKnDgwpnhdDqRF4hdxkNWaewMZYmU9oe/r0OA6NrSGpE13D5/qysPE2M41zkRhpTBYFn+ZKYmX+ns4Sl/EcWGp7HAjjRPpe6lc5Ol8SwYAlW/isuPucXJk5naocwuScDncmSqbX2FeMrS1Zk7IrChcwylH4D8PsCBtrEK3NyuviQpGY6X8QV6EMCvelzzJkjpc1Ufh/uAswod2VF0sI1UnM+hgtymBQCWBeTge/+p23jY/DWIJJPzVRZUjfo6jbmxphMZ69cq050JSwG3vLyHeQNb7jjwklpTOYw6FTakGDWC1qNJjvTaneEi3V5OuiCqhK4RCXl2hfek9Fi/ayooxFZjmkrqLDDF/IQkCvyFxax2QNmbX7Sm24P4GPvNmEBW7wW5bi/iC+G4jr8py3lwLgIzGJcKkgXRVx7EBwzHbk+TBqv5dReIQIxfkLncytMu82cL1IMwiVAQOqHVrgyCL3jnSxT4VXXDL1q/oZnTVJEG71tdu6cRV6xM23HXNixYyf8fq/kfGDyiBXpipwHJPCb9+TwtCcfpIlPgwsZirksO6ZXPOiFUWu1/qb8YvmvKRMGlg1XqQMoABLowIlNkatWyWzbIQZJWmjmZ542fhDRs6QUZnAxLZPO3ddE7q6rq8r+0W99IvT/RT6VAsHFbzeopr4fV+ta1peGqJHohLqvUZrPC4MwauuSNsYv8N5yV7NsD7cHWQjNBx/gJwKZM26rulv4VJC5H3uGCG2ZKDgILcu+OBSunZRejtjv/lndvicSpgcFq6unGL942bzxg/4yyIlRjQv3GIbhAu1wJmxxYRA+9gglSgPQgAP66UJyctplXD3ahSMySjKQcwEKu0QxL3eObbbmCNOeUjE+zcV+gJitlF13NrHM+91GCLfjaRMHrJPvt6uJBvF5wXW0J2H2WFD4WNy6pe5zqmiTq6I9f0FQRRMWPm3rqcQrApyhgY7ilG13MgID24srzBypqK9h9ewk1Br/VJfNIqe5gM2R4nooRGD+4QXXqMh2NUrajO9jjFc8NC/Zcq+INyKuQ4kCYeb7h0Do4ysFgojfCr/ZofOtkvFuN/BQMq7JWdaj9xN0scMTKWQOfid3MnuXiFaiJv5Qdt39kZ801HQjDPqtPIZu1RQ+Ewlk0AC2WJzxsrBcjMc2nB3V2kL08NNQv6raJfdhTiJVr0P8bgMg0flj3AllPn3RB6JBF8/4oXHe8tMzrOi09ZSUGaB0QXy5p8S0I3nug4D7/kaJPfYB3VRJwW2SMBQHfoistZnN3AHt1TsPfK5q8LNrR7FaBP7iokc0bMqk1Kl/TllgdflgqnIQkslkarOWEgVGc5VpHIHBV0e0CoRdKXZu4QGmNVlFA8yI56f05iiaXS7h7BEJ1sNgNZ/VDOelzKbG9+/TIcLYMYcLILpszHHZVy2G6RqQJgAPo+aaTzWeuNHD74qOKRxaqwE2fxSM0Wg6GNtQnI01FOgKHKroZtoTx9Zr21fzWp3Ziaa1pNiyWjV+j/XPhSw5NCMrojxuX6Z0ax4352H/WG8eIG6lhIfYbO4Myx0WWNCs6/3nN/vL73cn+oWiPSiF62/f/6z4YdUId/hy+L5RjbWEJ+tvCoSE0qsZ87N73MfmFGZH/SVSXlMuSm08Jwktvct/3SwRs4wJp7GKuTSpCy96K86wbHNqmOqJFAQ/y9BAlLp8h7Vr6zmVdgFrnOdhga64RvhFYpVXsEIs+p3m6DrUND9m/r1ioGJHqPzq984aBkpVUSX343vQkjajkNmGCfm7JWvPHXShflgMCqMLFWiH+Er/2+GPPODOHJ1wJ9tU3LY6QbtOYdencRAuwysa73QLaysueESbPBABD3DuFoVOp3zf3NZE6dc0kS8ydiY3B60arOeJNXPerLXEMx+3/IEr/se7mkFEeO3AMHxTRVxO/HZ/FuvVnb5yXZF1b/k1JDQga5DnVsZtIRs8LT1go6M8xCq4sHBXeizdvF8xn/naNlfisrgFYHcqY6n72gP83msbCJl9GlqGVV8CeE1MunwkNs3KsWqqTLR3sBO2YWMWmUuzTfkUoEeCv7+Cupsx9hUAZgReC+bV+4NEWqxCSoIdocLRCtvVWLVunzUqmQpaW/xgIKmg/LCdE69wfKeg27tvCPD6BHxXrwQWzjBKt/CDtKOu4Ih0flGy/PrBbItFPyMzxlEN0U19sW5YPFo4HSDfBhQSfDCnSF/EU+RT/Vu4cwlOk9ZTSkXoJjg6WFRa1HZ7KNQRQezc0Hm/lcdZQXCXALnuerCAt5fxCs8dz+kqQtZJNcg6mxHaWBgf25LBWXAt+1FByIfdCrD1dl/8sGcUt/8ykLPHlmft/p49/Oa0j2VGMRMziMSMJzpsEJB+/kOnyVWDZ5RRQGaVdIyOko4ISuDAnriW1wyE2eVM4PYzwb1h9mCKKEOE9hZlAtRxL/Q9XIfqOvBUzCrZZC2AQ4kmSx2IXy4tz9X2zPUHUDdDFzaqnzbR5MhaNFuhSvip9Ikzuxig92cgv4RqTf386n2Za4VfBTWH64YMW0yRh6b1wCP7xoDEWS8UHgem2Ef8QiqqG0jYBEM3VXn3cC1uHPr7gGcq0S2kmVX4bKsnq1hGUPDxN7oE7BT+jBan/jdY81ehtVJvsrR7GPMjX8l2TFCTYLMiAyyGuy9u4kWv7NSZgdVPnRfu85880aa9gLvWGr58gai1AAbslvtw9JBxLfNl+cDI4+Bx8lvmd9oNHVV2P3b0eWCRJALVDNseQJxGwAgipCyp8lMcuwiPwvAGXmTmEZ7D/iaJy2q3sCwGqSDA66ONrA3adpCltnYRirkz2v35oJ2WXg1eBc5N+turEYxIt+FQYG3Rf1jxwrXWNiZvXPwbCWT/XVcycx5qlcm8GsQ1I/OftFerUCFqTSpMRBdsAkGwbK7Olw6WN2OzDi/ojws3ngJ18AChrUU/fBTYfIzq3K27TMYL0SGRrSNJ63yGpXOiBb6aoJrZDNXioLft3UTZSfZxUO18DKPtSA9XCltpUUKyzgw3f7H1DDVL/C/dJx6IEOWTIyV3AmP/kkVDzRlXosVSCECiaThibVLTPSZ5obWZZUP00Xx90k/f/pAQ1/zliSvkzGFZmd0R302LhjYZAJc8C0hfjVLAoAG0VHRm26pYOfPJimdw6aJU3AZzVC4i7Q+lbzx9a1XBOdWClf3ItCkMIlwX4sZf1GidnH7leAw/cwV0UwcOO+ZyHbHy1tr/u6MbbbikvxFKeLDMRVUkapvNEar9PWPSFy5OawD1VwpSGSvpXTB6fmoeKBkeluM5U5DAWgsmI+0+Rgc7CraVrNs4GnXIvLHklFze5S1iKRLjNwz8WGB/VwBcAxI6Bg+CxMU/lROYfAmKDBKpWI75GajCTPVLRYt7VG6l6SdIYXXkkY0Hvj+qYinE32/6oFBMREcpzlvYgBbljLBojyWO1tv9xZwr2wljetxlKfpdA9zY7cZ2dUmdAF2+4XPqKVS+AWj0qvfkq5mCeSdwxwpEfVej1mWRi5u0xtUh0h3lKK3V0+k9r+9UucFwLZICzESOwyYIs56NIOzTGv9OYO7Hwme19RvGsa0qvQO/Q/302/g1d52bE8W46lS+jpNMuCLMh5iTSrQuL9RWBQPJzeU0StE8TAiF21obQXvRX6gw8t9VFPTzKmyjS0kTibg0mzOoz813+Hn807esVbTLqy2jCmnZj9GGWmgp7A4UAsoLt1IX6ZQcT+dxFpmMEoy1hzCoF01dgwvZ/4wwV8DU4+6mPXhV9j82UpW+K4X7KdN+0xQOzCVgeU8GJhz4cFYbmuRpx1uMsf29DVRptVQeA6rQh0gAXJdgkac5DPYxj5thpHPtw9TTASNzt33Tzs3mo6bmxn3BUJBzIExrZpp4/HHNVeWLYEZbSNKHYtjCxzMw2sBXDMIjXSVFWEgxBSpRajCYaN9Sfg3ys+LwZnV1Ku5J2hKdpWlS5L4juWh2XMFebVOBAy05NSipDQ2oVkp8n1aWZZnsMaRbJSOPuDt3SMbfp1BEKdhwVBdA4Em9JgcRgVpVryeec5qNLznN8uli129f7rkDv8Fo06mEz0anH9rE+pIEsRyDHR0Pwbitbuspn2VQ8vgIHfpxq6TS8y9js0b9W+ZwYVaMqUVDt9vnDVuDYfZ8zQNMedjgxda0FsMPfGGRmVznjVQFKrTXEzzcza13kMVlFkDu3UNRpxEC1VIb+UyJq12Qja2KjLGNFY3pdFQZKSs23L/eDjj2/DOSLARFmF2gtnJdEZDAYgNP4p++QxPMGdYnqM3BCscQKmFqwusZZ7hZIarlNfOVVS8DtvW3AseKyyV5ioMkcDS4A7akGezuW3hxlhV8kiRpFFHdoKok5ZducaYy71/4scJGCFkK4w5Jc/EeMxTYLJ8Vg9HCh8weKJO1oURPGQOX3QxMlWUyMRGUUoUcKKgDXI4YDzDZAZWLobyutzDVHU9rIB4vN8xvcEarJmouT4oLa1lQ+0BK0+Srnv1ZCAtxv8Ev81NfulAwwxwCYzGO40u8cnFF3FlkrbY3e9fI/nigiJD24iZ3UTbo4rccv9/3IuOSK2gnccj6KCPxg+QB+wvBP1ydEK30j/YffN68aZTtpfVkMqHw570IUYQT3eWW/5H0+/Bt8sl1xspH0pX7c+wsOQDQs92iiZzGYFpk435Ay8FUoQM0OEV0SzNfM3BUXKDGaI2kvsglPTQevwBOjqHtl6vAxia149RNGi0p0CEwsH7Zcb/eJMQjRB5cpjBzkEf2YXtsh1mTk0hPxzOlUI6NJPjQajqp2BWn1nfhtyA08oipnn5XKcYmnrd9gh+x0aQcBvTS3qENgZcs4TO9grK8XSaO7EGY7k34JnvpRguZEJkNbxIrhdutAEZYYek4oH8K9ed8esHZqMTAhD5yRS9MYSpXk1Gxit2onvE/PGo3dK/2vtgTWZo3pVok2mjgid1lBFXq/MF3DSOxnmnPkXH9e7lEaeTpPL46MDgFy6hH23mrofITwLduSOIpwfRSMql+TKfH9Glv310PJjWNlzmEF+bwmqaie0aAQoM4ApJTPLymlrSffmDwa+qxRGyE/AeYqzvTuFz1X/DtzQvoL0KVRcKrZ88O97UaG9hnIpLsXXsytF/uZoRbp5eemmrMEke+DsqwpSvI+W4hsBGy7xBFC7rRhMLinfQIJzAyau0/8fH8PBK41SdxGOJOlf94QA/GiOak2hTI0Pfd4TRs1WZypQC0xiVV92y6qchg2dTfkGO8tks0c6mdyvcZgaM7+VmXH9Xy/9ZtsdTa5lWkimFhZfRnn6Xja3p+6z+zYKKFwE2kF7ldm18A5KbvwyDYOCMh+WGhmOSlNhzty1nUwJ6o4RyeMQ3azCdZDxyHvI7R35USHBPaGx6rICja6OuZhNaGXIr9bwPfZziz3xnWvi8ZkUpSRyJNEunRn7kIi42i+ptci6IqmtVZN5oyOK6rxBGhlZ5EvpveZiGZfp4TzP2LTGf7S62MsH2pawelqai8moxN58pHxGl1RoItOnoyXi/1HVh0XMuzZc59PpzV1R01/H8bPMEhEbO+eSQzbjYb7pCBM3vmmG8zy/+dFdtBcD/g5Z2U0jGJmsy+Hq6z4MWWZ1taOsnediHTSW3B24ljb3gkdar6dMeWWc02E7xyRxPVorF5ELLFcoqM0Xfmr3zZvp/O0DPlyLkD38lTZyG5Sp77H3ZSnxptKPPPqOCaOUJnaKf1aXQ6A1rDVppvgSpBHvbNdNGD+LgZwRVcJWqE6Aw5fg8uxkjS3nF1mtfrPnBqHPBXhyxiT+7DRDbw8MmFK0oR9yW4WQiFngxA6h1GngpIQAsCXgwP+yLwpBhLGV29PxXwLDynzMSYsPc5ZtdL0qhv15Ko2QyE/3/Z7MgBQtI5KRNYAf+8wRdZtoShJDYlHNn9BkctdWnm1kXmm9KKav1vK+yPB2o8Wc+zXhI4Ah9qHXkAab96xVZwo1tU9Y1FDAYSrFJaoQHEDxg93b7OegUmxfDjjhGX+1jhNE6oDaOCUDSUwNXwGWudAHL4d+Qpt5SJyKpuPYUAqCijAP1VdabXRZsKZPPcg5Xic8BsuNWy94oriWvsfDtcYSNHhUo6jWZGmkdpRPMIXBJtz45b23dBMoYZBzNqNbYPTztBgYNfpnM+VnhaTOVAcCIeVhsUhccsDsCQ/xT8jfWAyyzK2ne2EFxN0CQ+1BIW/Q/6SnE1CxLnIHMSIUcRTwlXKEh/8ikQ6JZpdjqVEQgGGNZOZqrwoywyNO8jJx9F9ftocUkUWqN605NRn3NjS+BJaR6T9SdP3vk9tbloSCt2vk0x/c0Qs6fyfQM3vMq4RYat5uZwhz5rLjU9b34UHqJNnEkLLAb4YFxsoaH9ddCqVXROL54KvrfSscREZUKNgRnycXLhJ6AcqbLtJSHr5/gkXiRGBmbT3sivsIqF+p5NyfTR/sp0QhNEWptV38OgM03429bb2gCSd84NG6tLmWEj+toaQmYc6KXFGoQycLo0EIJluP/EtZy73T8Va9ynphUIoZJpaCtorSjFs0FHQT9LFt4Sq47e8/6gSQoXXmQ+j4jkRr7cfBetV7QNLbHN+tGO0Q+xNlKswOrb2CTPCxs7KYJMNJM3sVviABleHVJXWJw2akP+yg3lWY4ML/AjVBVomX8AIe9ULInrfWib6o96/Qn1KKMkdR6lk6UIoNWdn1jcEb0t9Tg/zZkc5qW3TvTd7xSGPMfYcnm4oHjL8FqPkAt7+i/1DltQyjWIFqsfxGHNBbcB+di7dfP2q1ar0sIFMWmmAB6BfB19LZjQWGIeWy2d/pIfUE5fUPaazS08HB0tE1oW8qJbnlWrJBLr25A8A2BHzOqKJm+kDJinX7DavMxe0mdvF851P++qfJmo6iShZ9iwYNqDg44ydEvlSjyqxsroK+zABSd6OBZC4+0sy3ieZdhqBSuDpo1JDEFNAZEjT1vyvOS7e6w8SxVKDcCOAKXVNGDICHWakT6vOl0HrSwLpB/CGr1dpAHHT0W8iAgIlfSTHVIvU94Pp0APxQ+cdH86v4dM6Gfn2YPxO+OAKIQfXh6itNeZ+lE5f95ETJBOHywBub5j76WIB4DqH7w3Cp0yayR+36GXOgKj7iDp6cUq1XXVmqEybDOF+B6qRia+u6Y8Q6+2iL93G0FA5jxn4cE1Eno4myBPca9EJivO/HydEJx/QtBchRgqG46Jf47nTcf5+LiCjo8QjV0yR52PaJw5bXV0mvp3CUMtSlRvoS4U9KetVD+lMc/S0vn2gedrCr8rx6+YmWvihq4t/l+DcGZxSpRapxn0fRvrOMA7LjASG8EPzcMux04OWIA2xwxffhKbIEPNB0iO90f2vXa3jG1iCv9Dn0h7OLQcVjnu6UHHBCCyUIsUw+6OJqHU0JJSYR2L2pYV1j22SBisoN/iLmykKg8sljlClx3QCdZ3BOttEg+ixd/ASspROXafJM9PYfaKt0Kmda+IPvcX76+C+dVF3lZWz0Fnq1TMozvP54/8JQ6+5O8fn8iDjWaqigNE63kVNwUyuvnSHLCmmCkCUcjmJKf9GVdafQHobLQasbf0s7FuRuEbxgG0zslgY+T657sBNkWlXONOnU9SMJuXVAG/F9WUwGAHbMa5Zx7JKdVyfvNZxbIPk1QUsoC0G3xk/fm3JbChhC2vxy69gFyZ84w5bp00G1q5rm4v6Q/MKmBEHJyAGX8fNffypFU4MVVLaN42MGB2eF5FyhxFAbbMIRtHiGAGOwCaaaBMCw5Mv4XrEgzr58ppkkNXxNoCqI9QfjfJzf7M9kj46i3i3RvUXlARBcjpNgN827SsKfxbbCTU6b2BAyOLIHuHKu7zw/mI32fUHjBNpA9hcUDbXUJ0uKLuHzsUhJdv0CHQkQWCZIbtRe/BXZb8sLAObJ2CTSF3MzaWdxAZVVOpRJ1adD1KIyRm8VJrd+lkM7yiPEgqo6eCG5TdJBaSA5solhyov2xyw8hWiYFXLcTPgglxKOgCiiDRPQkwc6Il3Zhz52wwiPOwgnQ79hH9QeAOKsf4btDUlFvQOWeRr3+sNy0Z6YPulQ/cnIZ1fF14jB5yT98uUCMnlyN5JYrkt4vueBkA0jzkeOERmmjcmsMufVHEH88ee2BfA8wABjzFNFQgYp2/OykwjIvAihN0fST6v0nPffqV4s+HNBdeXSURu4KobsLU5L2Re3VkkODv2kfAP5NQ+dyDV71ScwJAP0ubr71moVU1jN1q2vsCw/QaAfHp8UcToIDTijyjnP98UhfSODVlu9qW8HfTZyqOdewtQFeCjatvnn00g2ol8nVZxLpMx0eLVyOtVe+U4qNizNi+T+ppQkCLQKHpaDlCZhB/snT6uCqCURSir+j49QH2Kqm4igfjYNLd1Z7EyaGVpcETeXq6QEk3l/GT12TRbZuLTBVofqbh8FybGcXgtixc2gnY73G1PiMdRREDszzlLB9VU3Qebnum2AJW/RGZDggrCaBTQ37+oOV5Ky5QvI2iIK2mvh8VLWSvtAvAcH7Zcb/eJMQjRB5cpjFN1zn11CrFA52V9+vUkSXrFgFnR5CZJwk76l/HQwF1IE5YRc4YwKhGGCdxLD+VkZGuhFdct4ZD3XznrdN2pKchNrqKBr7LWcL9iE49sCOSE5nBAXbDoIr0fZvZIDYgPRwD0EXa2mjOhT9GZDzSF1sdX4PSAIr4zX+E4UBo8Kfb5+a3EefwXEHznqjB9ktyDRCVApXmyJTUhUovxVOqrxGJ+344ga1LI/8GRj9d6JmxPRuu35N/YtNP3sttp5rIRvstLwRGWFXUij7O66LkCW3DzBWDW1cwslXcGKgox98n4REKoyuNbhw1xJGBo9FYMkuDgXhJWqCH8sVF3PszOKXLssxXRz4qOTIt5mI0xNNZLEYD4dzdjnGbQxu/4a68GJn9KFs9u6AdX6jdne05lYClmXJZRKCak8MAcqUK3JS0X8L+h/4YhKtAHDg4Ut7uy35j5SI+gcSavjibfubfb5R8sUidcMxE73u4kijJ1bYq0E8eSoCD+IlhFnFCJQWvA/cBkzGrbkCtmyi+qFVMSUQfcvSJvtWlSKVt3bt7oujWVo3iASDUeU2/ilKhAhEGeMApYn9xmRdoF5B+2IHvlPufgcqbE7sBpa1nSEARU7LW4YKZED3FTNdvV/JiCsdvT88fr1rc44UoHSRO8HSbbDPHBWZcDo7FGFtBeRAWxl8nLNXdOvk2324E84XuGmsPogz6oGUTCWBD7qSfpkzUIHXoCOYP8aBIj1OsopcjhHnGU6ZSJaWfLwKhUilld5el9imbn8BqvLK2u1j2ONIzL/rJXJ83GNQqoHPX6TN3KkOg0zpO39EkzBJ5271kfblBPIT/a0BY/X29lBrlo9YUvaxBJuiNU2gfFXKCNlLk8he3ZS5gI1bxJBDIIgKwdlkF4QUL4TeNjreJ/gyxMMDRpiXymzlCns4WJzKt5ka+QSjaG1B1XzaDTTK07ZxRfRcXGwxlNOqwK0cTY3Uq+cxCV8zI4pyCGZIpR+Sba3B/SWQKO2ocEUo/G3lxFbmzSrPDZSYU3wUS0nVF1s7N32pnXwdV8BydiP31UFzTv+p0dOkIkTpaR6tdp+R0HKUp3rqmE5Exim+MFbP3sIEupYtSMUbUsgOoEPJvQDosgjjo5PLYGbn/9r2L+XHa7OTo2tDc3oyRAHBerIRPoJ6mc0MRlSW9BMB1VlIa+Yf/OcUaK+uLNIHmlhW0N0xLVagF6eDnCduyQem1RjagQU4uYLDvdQBVAQNLvd22qMidDF1Zpz6kzHLbg7/Rhd9t6OZI0vHPTvVb7DrPpKp2tUofOObiKRqpIXxnpaDOdGv0BgQkTJXrBD89yqANOlnvPrfPvFwlhS1lMI0NzOtp+nxI6CkPoOoNFDnDCi7iIlK0kQ+8ermP3MdFN9d3XlRFQ6ympYo3DjPnnuKw9DKJ4mB78khu4q6bXUXCDMipe3aKhXD5tc8ZWRXeO4UYyONOqjM2KusRh+mhA9pn3rHYq9nShSOcmMhRpZJKWpgImr57eAouuBlb0reMUWw94xJbfc+C+DT5m/N8qzUiRWMx/HvkHJ6c4aU7qW7PCQlK3Sin+iXP1SPj9F3vrwtN7IRdN7C0wvrEZ1zVMLQ3ppMs9+4iVA6ARw4qv8eNtQAEqzwaSAsbhkiXin0EJiHz8IIES9izGLj7YVvZf9Xc46pgp06zyBJ2CJjBVBesr6ee3eDQAIo71QXHVf7mGRqKxmrlMOfqOEvuVxVqI041DX+dVWbCXT2gWFK3Fn3ETEemkqnIAKhfh4KZK5aDrJC0e8av/5stjo+UYmbGZUONcQ+jCNLOiKhpooO5gxlKhXtPo3txcTapw6RP0JoUnlJbfKbmsuMIMraFjykYV/dtiR5rcKAg4H1bBJ3MPMI6gZbUC4jaayj50/AK1wF1B0AvEot6S7yFMLfLXdwnVGDZbBfB8dk68oVmrtVkHwyYUvr4gvrwc5IlqX+UN/dOZmW71PZYFMgBfKlb9Zn8A4fzruCRKHnAQBwpXNvtCdZLp12qFdvNe8NL4ivXAvjLo8KZjWUpIWpuF+xHvCfQcUETMk0mRt+Y4XkW12OFViw38oCfKbzyuVEHqb976LIXirAPdFnlpPevExcSH/Ztm7SZUQSNbVCjW2WLB1R5lEWMJpyOJUIMaqx5CV0ZNgBobfeYLanZtSM0LVi1etqWHtYrlI0xKoNtjgftByjworg5qyLqcZAHXHPToYczyTBEUcEEhugG+NyDOE3ZeHk8huq7jXfwAXDW+O1dDigx6vqEHgj7iKCw5AaaXrNfejMWssP5icjdzE+gTNAUmE1g/V2V7xxhZ9h3jN+MMDeUYB0WidMz2ShueGuTz/9RxErf8wTfHRU+XjzpXRLFmrHG/o9G7EjM1u5lMbrT5paKzhUu7zO3hL/UaCL5M5ge4VD3DgSHTZjN1SEFg5GaQ9L8AwF+P/Fcqp5L3N6T+1L/T4/XyNTfVarCF/IhDN+0xqDcPTfcvCfBLzR9Mvi+vfijS7caYrT5U62qqAXNb5EmZhUKHDnAnGaP6U+8UfM+jW0VMdX5iQd46srvOU+g9pJR6gP1/cRKTg79oNDCQucW+TbOo6AZ2+/E/0Txpua4jUGVlVYpKd/QyMFRQWAub0rwUYz+Xb3JZonnshhUckVHnKeZyUPlcIo74bdZdYlOq3wGVh14UIC4QXg7eniZriyajS+IgRbzWiKLI9c1IkHplUQRWMkuyzumdTRH1dJqSwfXwVI26Xb0hxHK62d4CboYqS+DD3RWnJe1OqDlMcjpmyO9UiVuvG2BgyY0Z1+RxxqikHrifyCQTI4us7nzU4YOq8u0RFMLZfTF4xCz9Mauq7vqU2jP5H4dPVYfqBseM21HEpNdyMfDUvqaJtbIOTZPefSbhsxXr8lR/qZmI+ksjINnfFhU77csjvYZq2/Z8n5fwSYHA7QbooBdQnf/uaEdUcxpO87vQdVozL8lR9hogvwKCNSivxOQjPfqjZEhPOUfI1sddN/HV9sVk2vZ6qfwIhqSpe1sgAUzUc2saBpQTdxLYs4LU5Z6DxeBhTVQCpY4PF6hCmpKj2zeDaOHiUVd/oZD54ZMnNw4u/2yxQGTX+HzrpIeCu6uOZCC2w+KQjOvDz7Qr7FtkzydAIBOx/sW9ZXZah9ctqbmrdUPk1bVKCpmpL0uPwxnmA4v5g20jEI7eR9aXrUndQPM8OUIpVL4wyK3xnWu2oI+XplPjE55NsKgwjb2oYJu+zvjJQ4pXyfkbGwNbFzdBOpzkSCOU0hNvNw1Q/KIdOdPOQfPER5d0QmsBJttI7y6iC4JstSKxxzKpfcxCf2A00eMdUSMmU9uNLRBR1UOzrCACDSiMyZWkFVc1KL9+MKqrCAXSF62Y6Ogs2roXmLQdM/DVS16RUoMq5FzfzOqKhJDmHtd4BwYKqGXj0+y+AMtSBMy6u7uWYTPvU4B5jFH9lqiuS+eS1hxnrqa5gQJVddOqLVm40TuhVYKElYdhdHd1NcxWrYOv8YdhVIFPiaCSoONNxnVswKlE1kXpNkno2Ri2Lw4mSWSUydMU2XmuICl6SJOVFF0Hj3WxRquPOl5DagT2NdJXmzToHpULcjZ5dpa/1XAFlwmYX+rACdT1kiU7LkltvGxpRZplb/0Uo3F/jyYmPbkEFDUXnHZOWbPg/SKqkHhOkwk+P3iw/jfdjhlg0htLtp1+HzkPHcmpHFuFBPqMSb35d5LFC6du4GBqxx6/jF0lEGJHhaDGXiXgtKwUcU89sn/U4L9Ui3JEOcWaL+PeT+31BHFavIvtpeMsVBy7HRMQFvVjg0tDWgPBe2wkuUWO2LdKvkFt86ykNuWsYBsBsl3+7peWaSrjRUnVbC0ZZtWiWKDtwC3LjSYuMcZSfgd3RW4osCy8sLJLAJyXNdz+RmrjBa2InO3HTUlbWoV3UCVED+J4gns/1Cz6HPO8DyQAi8YYlyZELA6BqRmLND125N4SNuinCjuXUQfP5K8uIDK7ZZDcVqDNR4D22yeBERAKjGtJCv7wvf0AHQYnwquP6TXSRXuTdiuFcYBqqfRj3gh3C41Ckk3RYViu9ZxmRq0o7aMQ2Kn0I3sDZO5xk8xCMg+v/QoQswaFXlFlEXjY6GiSVqFkNMc3aMYKTgXY3Fm14Ex3jzVVP5i9Tv22UsWTYNKImfWgvW5m9QdpSX4IUhNbT+ar0oNUuuwFGwZn04UP2kcW5N6s39SMUL+6BHGNcTqbr9Uyiyyzq8bHNmjRPrfXaZ5giYuNpLOerb4L7wVXyysndrYGIVHhE6bjFXtA4nvUGJqxcoLxvMSHmgmZeGOO+zZgey08xt6/JDae3Dkveg7vgfE73WfbJE+Ai/MedIolfM9jKxqRV6099ZiOBu8xScW0TyWFCKXXvZ1ozzEYCDLvCiOIVAqsIFLFBK3ZKfqtf4oACTaMsIE36OgshmfTpovY9kFd5CBhuXSe09DojjeJn+voT/RX7ek7jw6K64z4XXkdHrhMwjRpji5q+xA/6y+YAz+dRYpNlrOfskOiYmolL5HpJTWwDCO8vkdgOflACBGbjoivx0mhTg5C7rJ1AUtWAGw72CjMwPWsIw5MfdIOkMqtVGvZPwscjEP6c4XO6ESpHUp0cqPunGrgFI+1gBxY6RkYKgZ/i214smMjQc+piIUvTrz7JGvUHyfjCyvs0I8hcuy/kmifx1iz7OIH6JK/+h9LmUTqWD4E9BsVrIUYHjYNgSV3T0JuEk24YMaczEiiq2BYHpwRJppm4MZJL1pEcspLWCUBGQRawOU78zxNSYT+GB1jqYXZEnvlQQJiAdjxDZrj70U+vmoYalJaY4UnG5RmHxFHdjtCxrDDI7fYQ6Bgu0a4rXeyvmwUlJeY/U+Xr3NTSWH/LZEEKGQklVBNUXc7JCIFHu6J9ngWFL926XBu+ywr8wvWgqW6+TG7xEC3WpdZkuXq19Hdo8YmsfyyaaM9xo+9p6EceUriRaie/w1beFBeZmrhsF0xpcqPn0L+EV0MA0ki6H+hW7/53vEUmYgNYBuqBSX4vt8Tc/xWWgOs4V1F1VVutrvxbQ7r2yHAdzH5KKYm1B9mdz8rl8LcRKZP6NqDq4MmVOycpvJGGBtPmxYm34bY1dho1dfcKtvRFN88Nw8BX7V5S8rtTDcpTCkviPAkKrOb0qB6HMqtnVMikfP+I9I3xLW4BqIhkStpXhpznyiJQhRz5rWUkmytkSsUaD1pWRDuMcEFRGiDr0cg1mqBa8ICyQ7JeamdsqOjj6ackpaTCXcLduXBIbqM6P+njCpKdAnvwePkvfXfIyNjZ/y2TNGU+VkYyH1+zuH8clgZBfRC9mWdYXjhFTX3DKE0P4tVF4Y5vRc7rS4TZw8zd8uRwgRwc48HeUr+29juhtLgi4BnwDsX/FXVt0tSiMmd1m94vBJ6CHZ6cCTqV7ePrlp9m2dt/Py5dYY6Wddo3LfdBpUz79B3vFVAdbxI18osWcXxIv748OUUTRW6FL+bdpKbcS1zPk9uGEX62cc4insoag/2zV3+SEVsSd/XPHNA7Iu1/dKgcRc1AQXTnd8aY+N8FLRau35EzCYdME1jmKVlSG3w2X8edVdBTBKllWKdnGRbtcQDeHU0ttCfFAvbKJqd0KP/JendTrM2wjs8OTPLlKqcPM54B76dxjQVA3UHtix55T2TmrRf3TYkkVg1GSsaSr5jpz6JwbfsKF2pk4K6HRKaVLTKBFYA3vZH/dYQvCDiDQVBwOzkdfMEo6FdoVZVFNSgkOi425cNo9LDPIp8hu/SCfvc6slfjt45siK3G8XuDQQEhVVWuinGzBlsRnSsEMJPe1qSewDmMssTn5hikWkgz37iY8tYppn7LSeunJp0ex2HegprRODTR4RVwJ1x73yng/yXgyB39HAXJbTVOqgLWj9rvGjBUAsphImpdnKs5R2++Jv3RRE5LpRFOOnRArNz/gDFcrtY1Mrql9Gc8CPi/X5kU/hYPseEspWTEuqaA+nryvbbskitLmFE7Gz8Tl8Nv+cNZ5fDRbKAkEx2SJ/0DXPSwX95kYyL/OQVvVcZqnG7DVFrANCX2qmxKfQfvk+Q2zxqAYTGPbaOcoSIaUn4w3JMmi84sqUQyrsm0Yw8QleOxHd1sItoDKvcGA1Z6wDtw/7Fte/0lMnrc6jRkWRbInlS35rqHs0xGgsRD9X4ZsdOVPDSXT4s9fvTFklc5FttGybRYkt7ADNOAUzX6+DC8JxsDhY5U0N2F9TKjC6orKI8a3eDg6zkfcPJj/b0BB9FAk/B0+tBPEl0gXWva3mDT6z3UtlDZ3lzgE4CCz2cDd+BCVE2QRiZYP15Y/xXlmD/DHi+h/Xp8ePpeIA/6qCYnA/MoXS1FlqT9E3Y+aozkLMyauWBpg5t2bXDD/7FOXgn1u89Z3nBU0lEhYjxrjEcB/vi2OQ/m+bNVpj/Qb9P4fdSpeM1vU9C4mwjX8rc37hteKo/Y7Rqyxz6qS2l+nnbX0HZvRxAliJ5nrFkCBfQcMe7yZFX8wVNNjUHywcVgoKdBW5ntW81ilki4tvIsAyjHpXEB64QCsg4JMLPls/3pEhK+vjAuhPmrfhq1HtTfUFVsXS4Hk46dzThdicA0t/WQywmbiKMyAcCeUq+sIJ65DGkGJzcQI9AlTWXNV1opX6VJqTCO656s8E+1qOPRwTJHvtzB9crF8ssWc33hDxjCZOiIjSuxYhA2GFjlVrPNY6b2LMzsT8rpwzp+qw9TwRBAHt+qq+TdqZlVsJQDtnBLWg2YQQ+DemE4itMBBjWrrJTW3G03RFLmVj5iXS287YZSCJow65A3sMmgC1culD16yrC9HI//+cWiDhOxkp7kmypLwdAKwBiqqfFAuci+UPg1UovGKZxAp6sHLElz0tfkblGOvAtLZwc2zLoNW6EXLWkiA+PcRmv9L1V+i1CL3k3vXkxk3cp4UWGYxncvFRm3kJeQz5gk6a/2wyrDxhJT6IKhnfXs6e56KfZ9Gf3Cz8vJ81WzdLGzqLBqem5jXsXkofEGD87IQW3MXm0NjmcjUk29cKyxTxdmbLNlN+mj49zvg2wQVDoLneR9h7+cMBq5y33jblBpuGpiBi/YBk7VO6dRK05QjnNXdM3D+I+dBrXrTaYz8wg03xiJYLrjwHEmd82N0rZfA1i/EcoOM76+7crXLpM2hSESaRMVslibUjxmw9Y4Jftusmguvq5/unJ87rAy4rEXfm6bbjTw/ctn7VdbW2U5B8okLFG97v8m6NwN5kRSHHj/JMw10jyMLdGCaIlJW564oA5ImP/4EE3RjfkW2Q8+HNOl62ov5076rpxBxBsWF7+44b9GHJxgkwd60OdRiNQbWwN2ZhdJWKYeeAhQHXZbshVQMhMZcwnlEIiK4WqDMtgnA1NIPmA2qILt/P7+8j55WstE3YyzP3GY3vn7bjax6kjGOghG+tpHVYYP9fpgHnM5copdHXvHBSHOvuP8kBQz+T3eMOIYXthB/5Gj6ycxmbyLpQ+/9o6Rs39+opcMqPOBwSCju39xuTDWddvzPAY9FzDqjXr2DJ8d8K2qyQlky2BogxJa4Iiei4fTTwU0K/tKt9Emv3PqWmoAzd89gBzCy7gAJjDcvKtWo5gCRbhejrK8r2Juh8z2CMjW0AYFf3SG2wVMwl+dRo5T9WSNqEC9tWQk70GCO0CE3G/9xsUyZbayt8iIL7fiOh4HYzQEKB5k9YZu+0MbCX4jG5qLtEPVWDW/tPQAYD5F5Y0CwYV+JTcfkf9GzTMx4DWXCKMiBKRnKBnKjV0PAMmbplYxpjp21HmkctRlh8I+upF693lAtkTKA/F04hsXmSiIv65jQ2koaii9qx0+yzugpe4KNHGdGu/q6YbKyKVGUMrukLRhv1bfozWqZTFaPcjXmcL2XpPn5JQKwDgJZjNayhBu4KGxL+vj0kfURT2pMt3zvnmpv9IumBfLVxGlz8xtqiihhctTGMdNCm85axPQWvgw+e2g8Z155H+v8ANc6vwhxaplAz6BjMRVxaSYaZfGfybPsWjoe4cjSxzWQyL+0z5guU4nMvfmA+80Z1KZZPKfvSnFjXb5H5ipvCtrVS01shXBBbMR64sBVWs9eUbRU3HycwxSyqelrIetLSRE9lDlqCchU3/q+IZL+bcWtvBszY677/bAZy/Kyxzg/L4tLFGyM0XhhC3MyZ+0sJ7UsTfny/e5nmn63rlucAUFXMbHoiXSUeTRa4drLDQkdwOpM/mQh4ESVspaPnMwyA9Mp4eBCgJpSZpv96vAryQZ2JbBxif9Ekh7tL+Cm1SbPUUK5FPlvhZz2giEKAQ2JXHWuu42PzOUeJOELs2JDN5xXs05Kj03q00xihO9pjlAB3HWqs/zh6/1egZ4IlsRsKGFjY7UYrhHFx1JKzmgAz34hc4q7Eks64TZtxdaTX/GwJAfRVU688xy+cFUowL3+o80AOpJIBmgerX3rVA0Olf8d9lXn1PC1ZcYhCOciZBfvqShqrI3LovY1ePNWjimSfNWSLD/j0K9BravJo6QtdgjWmNd380Oy/sNBXz0tYgKDW/66dw+gSCaYfN6iHigN1IZrW+PiqK1VN6p1Mkk4+bDlwNKYsF/hCiFvNix0H0L6qcpjexY8iQVLItojMBlhOFVPlbWdBlWko1CvYBx/Rw78VfSwKJJx4M78zwFMDh2L74RMi8mn7L8AfE5H8Jn0pFMB3agZqah4RgHjWkN0dUC4CctDcSZTw0+tSg0ar9ezGDReqS6Ea9+TV+cGL5vetxfkSJk/DskGgVqcQpoE/cW6h5vd5Yo4ZKZ7D2/G7F9hcuCsn+b5SfKHBttVh8kTs0nAiiBH716kKDJl+7Eg8H9GU/k/KqZ+ld+F4T8WlQ6+IM+/hxnAhuX0F6EGSZB7fgIj1e/K7eIAxnWJmY/YKlwxYUrrZ2wDajTHRKLUapO5g6UNy+D2LXdHmO+2zEaA+mCkwEBegJUmvwt8cs7G+B3t3AGqmC3F+NhXfdTYDdDPt/jzvi4WTaMxrjoiSguoIqcd+6PjiNukDLxLHB+ZlvfJFa7fiyR4jiNBKD/IhWACxBg13//Rfk35HXc8EicLL7gtNRhqSiAamrccmtI9JY6HjZ55q5FkW/TpBRD96IyrgEz/9SwVyst6PxudaaOYK838ZipPjOZrAWD+R3Sv01ZywSRTUM3oFkUo5gTLMe8bNNmA43MjNHU6UIbRtvLyaePAM5acIEZopA8OzcPl4s6nxo6yGHFxaBUWuNncumXhdHuJtphKVhucjbMkN61tG4+W0qi02sm3w29BBUhrLM/q9YDC2NWum1DCPkAoZ49IHGE2RA6ZJI6KgV4ZrodipVHcMIvUZ6aD3EHWvdi9PYdmmEjR+QBXXL89USXwM/kUcc7QmHzGqgIVnjOTX1n179f6cB+s2iWJcXjC97apLTLqCV5LRTr0g79WBsrPw5SChXoYSw8w93FPCM5l2dAzruJidEPcATAmpxyFRGhTocqXEVsZDTKSl19fwW3Pn1cYBK83CBnYqLco0eLmJkFcGS6Qu+dIhds1U5YJlzOjgbjtSD794+Q5Zo3KcJrs/rVOsLwzZJWlhMaR0JxVL8WC/xIMhxoT+her+bKinunxygYEdafn984m/eQ/1FtKvb/tMGU8y7vZ2dOx+dst8bp3xHl36BxKMS55G+yqPJZZk2LdKPv9S93cYJF34HhfdL3KbxJUEgsB7b6/wk9GUp5YYpAwXWqem/JXsnhxDDs9GrSDmTm8BazirDvZWigy4bZqBN9rA9+vx3K5nI6bzfcXk5o9nYPOHKXFkPzSFdYF73/XUVOzzpEx/oXFK2861zDv7tZCEEaJsGToXBNX5a4a1wStREZoP7refWljBcphpzObw6ISk5DlaW4Qlr4D4e9TO/294EWUdJ3o1HIYq8LTpxJrxw11bjB56qHUTN3YeWINGHSk07EuzViOvSgVotJe+T+yWPcj+px006o07MrViCZjhEqpufOACXirKm3KGywDKmIcb+VcYfwoUAdSOeLEPJE3nYu4H/Bqw+Dpr2uRhQmWsgQ4v/0vMWERpZ2zMBopwQVfkWyJoH+33Z445pvfUsPGOSs1GzaRf/frDE2O36/E8sgE3uXXanhWHSNskBZNsJ8e83B7Q4Twzso5QA/o17ucWFaqu55wGbS3HuhMyO5Plw8sVvsBOE9j5JKG+Zsq2DfKs59L9ttTkW/i3gx/Dd8xgGv2z2LAUu4SOq1l5BZQJ9KDnGUwDXbH0dh8jW86cIwXvtHYs1pY1fiBvAeblaNNSpeT/y+40umE5PR4W/C3qm2O+1KXTatKJZlCREmCtvdFE0Rjswys623HQtDApUoUBh6GM4I/9I3XJhyOBGvyHprFv4qdQPiBYrLVBTwWb/JO0d5AxYoCO6tr4CSZnx/x2+WseDheys1Xe3mx2H8w3b3q2dVQ0r6s7+c1qsTVwTE7z2np7apVfGgYs+Vosoj4gc0Nx9LU8Or8rA4lZZ98WXbQcr6iPZHftkKvKHPWY5FznC4Krogw8wx+rM5ITCqKaaALizya9ngXmk6DCBdPm8xHeMu/WdE9Hbs6HToir1Uw4gkCpMiUS99/lnWXKfkOAVVt0oXWS7P+QFiSyh8c6ADYwEcJJxNXI+l2HUTdbutEbea7v3q81CN6HhErinFbotHgFQXGBpsUrhe8QOKiqbph3QIG+qH45y/Rb+T1Cyzji5FFpMrRGGIKnHPOEQdCd++5OSk9SXqamavn5a+0Eqadm+duW8a9B8prUbMnOa90ZechT5UD4M8xG1GDA4z5n+kcI+kylaQ+Cr/DKK+guEF64SJSOmA5FJYUsIZbNvyWsFm0XGX9/zHCCF+uyG7U+YDuuHx5H8QVCk8uinIN+joAIAU3LI8O7FdPBHBd5efsdGo6hnPp0KNvNKrbDTq6R0SM+b+p1hsxWQMCvI5aOtnIBCF0gIoLY0zrycrMobwXrtNPDmS6kEKzhYH4vIf9zlsWEAng20Sa/VK6lFKVk6/WpYVPMcXZ9O33QTWRZ6Rh9xPHpDbjr7+s7awhUP43iZiv8j+Dclhxl3H1qhQ5o2xLrM/74oe9REbAyfM31Rkmex8gshTwffAy3WP7JRucC5lUt5m+DWc0HA11CfbYPF1E79mkNevCRN6kQuTw2FwgQD66Pgeg+w9POpttkI6qeBY7aZMLLV8twODunWsiy37oPbXx0jgX3irYH9z/LwovgewdIdsRBN8NAGTsJjPyX0hWqdPGaELkl0HMUwqhZp6jSLx4nEerivwUJK0h1U6yzTqhJBAN0LJuxRTIka4zH0AeM/oce/rMbukNCC/ZsyvrDm9SkPDw+jAxO7oIn0lC2BvoEomdgGzY4QOHFq81YQuMxMJrtQ2Cv8PcjX3aVOlYDGlsXKsZtwIm8kOdZNYAg//AxgGAiTQkqTPJ0UmQ/SmH7KhVyRTUuIYf3iYZrwmyABxs6Do5+bXVUK1JgwAutrNHr5Np/EI8vOTfdcP7b/ewzhgo4r9eppW9mc3fA9oRLzhRp63tlGKeyPaYAqvXPnIyJnpn1zgi559+OHzRjHzkAcGfsvnyTUDOwaNTMdlVaD4nPDCK2pMY2d6s++1SMNCFp+n556ayriwqlVobNIqCJn7oymelH+S/SRO5atvfs7uc/y8eYtchqyFC4DCqwBPGXqKPsWdizTkoOZVezMVNnw9Z1ydYYQuQdvoq4hYz9KwjH49rvege/EX+GnUqrFVDvebTFaqNl+ikDOQBzjXz1exq1Lgxw0C4DN9e7J1PhoWlDC2lOL3YQJZzvqRsWmSmHpBkn7FpobW7srWi/6jbdrCJGfZkqgEfkwzHF7CyiiHH6knNi1L8sLN8WfHyr7bg4G/dQLov5Ape8yfGaR0PxTx0pnMvSzYR//iubPU6tvCfOdlBsPbY7eihgzH8E7SpyuMwEbjIDsETQ7Cgq+BQ55dTyCeEPnsxNaACHxT6KJ+/NrnvC/+oo45LlBUaC7ibqDNkF4x7ljQdt0lB+UzLv2e1voiGLBF1iKAjSW4vEBGBDk3YbWngA/bXYjVjGGOb3SwZkpO8LbPBrRvYFn7wO0695Im2bk9r5jgBqnyXce+/teRW5mJ356uba6f+ESNjnTWdlegbWA6kGN1z0ivNkU7q++UslrGqFzq3QnMI9Jk0EsCsOKYBCb8K1l5oCvNwYIAakO4O893MHshmdjswR2UgDr9lJxkdPEIUZGb/BNr9UsfSPxdLleymGIE9UIQqdmZ13sndOm+UWOPOr++GXhlA5JO5qfv4VzUpoY2wc4kysoZXO79oc5YOPOmjLZhCHrWpsX1C0Uu9Y/dm0G4iV3FOf94d591+wfrZNFy7eEE6lIDqOtCrfEV3rJx095W61Pr5iWJJ+9xoGAzA/5YCz5BR0J8h6sGBK4ftaIxFGP8VilBMlLcziJcpudA5jWpuIMaJU8PL56GQado;" parent="1" vertex="1">
          <mxGeometry x="35" y="200" width="996.97" height="643.54" as="geometry" />
        </mxCell>
        <mxCell id="rAR7rqShO8Zl3SXEvXl2-2" value="&lt;font size=&quot;1&quot; color=&quot;#cc0066&quot;&gt;&lt;span style=&quot;caret-color: rgb(204, 0, 102); font-size: 17px;&quot;&gt;STEP 1&lt;/span&gt;&lt;/font&gt;" style="text;html=1;strokeColor=none;fillColor=none;align=center;verticalAlign=middle;whiteSpace=wrap;rounded=0;" parent="1" vertex="1">
          <mxGeometry x="419" y="420" width="68" height="30" as="geometry" />
        </mxCell>
        <mxCell id="rAR7rqShO8Zl3SXEvXl2-6" value="&lt;font size=&quot;1&quot; color=&quot;#cc0066&quot;&gt;&lt;span style=&quot;caret-color: rgb(204, 0, 102); font-size: 17px;&quot;&gt;STEP 2&lt;/span&gt;&lt;/font&gt;" style="text;html=1;strokeColor=none;fillColor=none;align=center;verticalAlign=middle;whiteSpace=wrap;rounded=0;" parent="1" vertex="1">
          <mxGeometry x="830" y="273" width="68" height="30" as="geometry" />
        </mxCell>
        <mxCell id="rAR7rqShO8Zl3SXEvXl2-7" value="&lt;font size=&quot;1&quot; color=&quot;#cc0066&quot;&gt;&lt;span style=&quot;caret-color: rgb(204, 0, 102); font-size: 17px;&quot;&gt;STEP 3&lt;br&gt;&lt;/span&gt;&lt;/font&gt;" style="text;html=1;strokeColor=none;fillColor=none;align=center;verticalAlign=middle;whiteSpace=wrap;rounded=0;" parent="1" vertex="1">
          <mxGeometry x="834" y="453" width="68" height="30" as="geometry" />
        </mxCell>
        <mxCell id="rAR7rqShO8Zl3SXEvXl2-8" value="&lt;font size=&quot;1&quot; color=&quot;#cc0066&quot;&gt;&lt;span style=&quot;caret-color: rgb(204, 0, 102); font-size: 17px;&quot;&gt;STEP 4&lt;br&gt;&lt;/span&gt;&lt;/font&gt;" style="text;html=1;strokeColor=none;fillColor=none;align=center;verticalAlign=middle;whiteSpace=wrap;rounded=0;" parent="1" vertex="1">
          <mxGeometry x="834" y="689" width="68" height="30" as="geometry" />
        </mxCell>
        <mxCell id="rAR7rqShO8Zl3SXEvXl2-9" value="&lt;font size=&quot;1&quot; color=&quot;#cc0066&quot;&gt;&lt;span style=&quot;caret-color: rgb(204, 0, 102); font-size: 17px;&quot;&gt;STEP 5&lt;br&gt;&lt;/span&gt;&lt;/font&gt;" style="text;html=1;strokeColor=none;fillColor=none;align=center;verticalAlign=middle;whiteSpace=wrap;rounded=0;" parent="1" vertex="1">
          <mxGeometry x="494" y="778" width="68" height="30" as="geometry" />
        </mxCell>
        <mxCell id="rAR7rqShO8Zl3SXEvXl2-10" value="&lt;font size=&quot;1&quot; color=&quot;#cc0066&quot;&gt;&lt;span style=&quot;caret-color: rgb(204, 0, 102); font-size: 35px;&quot;&gt;&amp;nbsp;1&lt;/span&gt;&lt;/font&gt;" style="text;html=1;strokeColor=none;fillColor=none;align=center;verticalAlign=middle;whiteSpace=wrap;rounded=0;" parent="1" vertex="1">
          <mxGeometry x="744" y="342" width="23" height="30" as="geometry" />
        </mxCell>
        <mxCell id="rAR7rqShO8Zl3SXEvXl2-11" value="&lt;font size=&quot;1&quot; color=&quot;#cc0066&quot;&gt;&lt;span style=&quot;caret-color: rgb(204, 0, 102); font-size: 35px;&quot;&gt;2&lt;/span&gt;&lt;/font&gt;" style="text;html=1;strokeColor=none;fillColor=none;align=center;verticalAlign=middle;whiteSpace=wrap;rounded=0;" parent="1" vertex="1">
          <mxGeometry x="744" y="544" width="23" height="30" as="geometry" />
        </mxCell>
      </root>
    </mxGraphModel>
  </diagram>
</mxfile>
